<svg width="64" height="64" viewBox="0 0 64 64" fill="none" xmlns="http://www.w3.org/2000/svg">
<circle cx="32" cy="32" r="32" fill="#F58220"/>
<path d="M43.5483 18C43.8617 18.2773 43.9003 18.6341 43.9003 19.0343C43.8906 25.3152 43.893 31.5984 43.893 37.8792C43.893 38.6363 43.7701 38.7592 43.0034 38.7592C40.2306 38.7592 37.4579 38.7641 34.6852 38.752C34.4152 38.752 34.2054 38.8051 34.0439 39.0221C34.027 39.0438 34.0005 39.0582 33.986 39.0799C33.4748 39.9093 32.6671 39.8852 31.845 39.8322C31.5798 39.8153 31.4158 39.6417 31.2784 39.4609C30.8444 38.8894 30.3043 38.7255 29.581 38.7375C27.0011 38.7858 24.4213 38.7568 21.8391 38.7568C21.1399 38.7568 20.9904 38.6073 20.9904 37.9226C20.9904 31.6683 20.9928 25.414 20.9855 19.1597C20.9855 18.7306 20.9928 18.3279 21.3086 18H31.03C31.3724 18.352 31.7003 18.7185 32.062 19.0488C32.2717 19.2393 32.59 19.2321 32.778 19.0681C33.1542 18.7426 33.5303 18.4051 33.8293 18H43.5507H43.5483ZM32.9926 38.453C33.1397 38.318 33.2217 38.2626 33.2747 38.1902C33.6243 37.7056 34.1017 37.6043 34.678 37.6116C37.2313 37.6381 39.7846 37.6164 42.3379 37.6285C42.6514 37.6285 42.7599 37.5585 42.7599 37.2234C42.7502 31.3259 42.7502 25.4261 42.7599 19.5286C42.7599 19.2417 42.6779 19.1597 42.391 19.1597C39.7966 19.1694 37.2023 19.1694 34.608 19.1597C34.3959 19.1597 34.2488 19.2248 34.1065 19.3743C33.851 19.6419 33.6099 19.9457 33.3012 20.1314C33.0433 20.2881 32.9902 20.4448 32.9902 20.7124C32.995 26.4749 32.995 32.2349 32.995 37.9973V38.4555L32.9926 38.453ZM31.7871 38.4482C31.9125 38.2264 31.8691 38.0769 31.8691 37.9347C31.8715 34.4242 31.8691 30.9136 31.8691 27.4031C31.8691 25.1536 31.8691 22.9041 31.8643 20.657C31.8643 20.5196 31.9511 20.3243 31.7678 20.2519C31.3507 20.0856 31.1241 19.7094 30.8179 19.4225C30.637 19.2538 30.4682 19.1621 30.2103 19.1645C27.6449 19.1766 25.0771 19.1766 22.5117 19.1645C22.1814 19.1645 22.1091 19.2586 22.1115 19.5744C22.1212 25.4574 22.1212 31.3404 22.1115 37.2234C22.1115 37.5417 22.1862 37.6309 22.5117 37.6285C24.8722 37.614 27.2326 37.6285 29.593 37.6164C30.4273 37.614 31.2952 37.4693 31.7847 38.453L31.7871 38.4482Z" fill="#FFEFE1"/>
<path d="M32.4092 45.3243C27.6039 45.3243 22.7987 45.3219 17.9934 45.3315C17.6728 45.3315 17.4485 45.2568 17.2219 45.0157C16.5733 44.3261 15.8934 43.6679 15.2159 43.0049C15.0688 42.8602 14.9941 42.7131 15.0013 42.5033C15.0158 42.079 15.0206 41.6522 15.0013 41.2279C14.9893 40.9675 15.0568 40.8686 15.3389 40.8759C15.9971 40.8976 16.6577 40.859 17.3159 40.8928C17.6776 40.912 17.7355 40.7843 17.733 40.4564C17.7234 35.4775 17.7258 30.4963 17.7258 25.5174C17.7258 25.1871 17.7186 24.8592 17.7258 24.5289C17.7499 23.4511 18.5456 22.5735 19.6113 22.4144C19.8451 22.3806 19.9536 22.4168 19.9319 22.6699C19.9199 22.7929 19.9175 22.9183 19.9319 23.0388C19.9681 23.3475 19.9054 23.5235 19.5437 23.6079C19.0905 23.7139 18.8446 24.16 18.8446 24.7001C18.8397 26.2094 18.8446 27.7187 18.8446 29.228C18.8446 32.9724 18.8494 36.7192 18.8373 40.4636C18.8373 40.806 18.9217 40.8903 19.2617 40.8903C22.3237 40.8759 25.3858 40.8879 28.4478 40.8735C28.7516 40.8735 28.9806 40.9362 29.1542 41.1821C29.6244 41.8403 30.244 42.0525 31.059 41.997C32.1946 41.9223 33.3374 41.9681 34.4755 41.985C34.7841 41.9898 35.0421 41.9392 35.2253 41.6788C35.7027 41.0013 36.344 40.8445 37.1686 40.8614C39.9823 40.9169 42.7984 40.8759 45.6122 40.8928C45.9642 40.8928 46.0317 40.7939 46.0317 40.4612C46.0196 35.234 46.0245 30.0068 46.0245 24.7796C46.0245 24.0539 45.834 23.7766 45.1372 23.5428C44.9901 23.4945 44.9322 23.4367 44.9467 23.292C44.9539 23.2245 44.9467 23.1546 44.9467 23.0871C44.9467 22.3035 45.0239 22.2528 45.7761 22.5494C46.6296 22.8869 47.1601 23.6947 47.1625 24.688C47.1649 27.0075 47.1625 29.3245 47.1625 31.6439C47.1625 34.5927 47.1673 37.5438 47.1552 40.4925C47.1552 40.8204 47.2396 40.9048 47.5627 40.8928C48.2475 40.8662 48.9346 40.8928 49.6218 40.8807C49.858 40.8783 49.9931 40.941 49.9521 41.2062C49.9472 41.2327 49.9472 41.2616 49.9521 41.2882C50.1353 42.3081 49.7905 43.0892 48.9635 43.7233C48.4572 44.1139 48.028 44.6106 47.5916 45.0856C47.4156 45.2785 47.2396 45.3315 46.9937 45.3315C42.133 45.3267 37.2723 45.3267 32.414 45.3267L32.4092 45.3243ZM32.4044 44.1573C36.467 44.1573 40.5321 44.1573 44.5947 44.1573C45.3614 44.1573 46.2149 44.3502 46.8707 44.0754C47.529 43.8005 47.987 43.0531 48.5344 42.513C48.544 42.5033 48.5512 42.4913 48.5633 42.4841C48.6766 42.3804 48.8092 42.2695 48.7345 42.1031C48.6622 41.9392 48.491 42.0284 48.368 42.0284C44.7852 42.0235 41.2023 42.0525 37.6195 42.0043C36.7973 41.9922 36.1536 42.1513 35.681 42.8337C35.5146 43.0724 35.2856 43.1158 35.0035 43.1133C33.5207 43.1013 32.0355 43.0627 30.5575 43.1254C29.7787 43.1592 29.1759 42.9856 28.7178 42.3466C28.5659 42.132 28.3682 42.0139 28.062 42.0163C24.2043 42.0308 20.3466 42.0235 16.4889 42.0284C16.3684 42.0284 16.1972 41.9392 16.1321 42.12C16.0767 42.2719 16.1948 42.3707 16.2936 42.4696C16.771 42.9446 17.2532 43.4123 17.7162 43.8994C17.9018 44.0946 18.0923 44.167 18.3623 44.167C23.0446 44.1597 27.7245 44.1622 32.4068 44.1622L32.4044 44.1573Z" fill="#FFEFE1"/>
<path d="M32.9926 38.4508V37.9927C32.9926 32.2302 32.9926 26.4702 32.9878 20.7078C32.9878 20.4401 33.0408 20.2834 33.2988 20.1267C33.6074 19.9386 33.8485 19.6348 34.1041 19.3696C34.2464 19.2201 34.3934 19.155 34.6056 19.155C37.1999 19.1623 39.7942 19.1647 42.3885 19.155C42.6754 19.155 42.7598 19.237 42.7574 19.5239C42.7502 25.4214 42.7478 31.3212 42.7574 37.2187C42.7574 37.5538 42.6513 37.6262 42.3355 37.6238C39.7822 37.6117 37.2289 37.631 34.6755 37.6069C34.0969 37.6021 33.6219 37.7033 33.2723 38.1855C33.2193 38.2603 33.1373 38.3133 32.9902 38.4483L32.9926 38.4508ZM37.8654 22.4365H40.9925C41.7183 22.4365 41.7038 22.4365 41.7183 21.6891C41.7231 21.3829 41.6363 21.2936 41.3252 21.2961C39.1722 21.3105 37.0167 21.3033 34.8636 21.3033C34.0559 21.3033 34.0679 21.3033 34.0655 22.0941C34.0655 22.3593 34.1331 22.4461 34.4079 22.4413C35.5604 22.4268 36.7129 22.4341 37.8654 22.4341V22.4365ZM37.8606 35.4996H40.9853C41.7182 35.4996 41.7038 35.4996 41.7183 34.7522C41.7231 34.4436 41.6339 34.3616 41.3252 34.364C39.1456 34.3785 36.9661 34.3712 34.7865 34.3712C34.0655 34.3712 34.08 34.3712 34.0631 35.1114C34.0559 35.4128 34.1306 35.5117 34.4465 35.5044C35.5845 35.4852 36.7225 35.4972 37.8606 35.4972V35.4996ZM37.8895 24.592C38.9311 24.592 39.9726 24.592 41.0118 24.592C41.7134 24.592 41.6917 24.592 41.7183 23.9096C41.7327 23.548 41.6001 23.4901 41.2746 23.4925C39.1095 23.507 36.9468 23.4998 34.7816 23.4998C34.0583 23.4998 34.0752 23.4998 34.0631 24.2424C34.0583 24.5413 34.1572 24.604 34.4368 24.5992C35.5869 24.5847 36.737 24.592 37.8895 24.592ZM37.8798 31.1115C38.9359 31.1115 39.9919 31.1115 41.0504 31.1115C41.7182 31.1115 41.7014 31.1115 41.7183 30.4292C41.7255 30.1133 41.6483 30.0072 41.3108 30.0096C39.1432 30.0265 36.9757 30.0169 34.8081 30.0169C34.0655 30.0169 34.0848 30.0169 34.0655 30.7402C34.0559 31.0705 34.1764 31.1187 34.4658 31.1163C35.6038 31.1018 36.7442 31.1091 37.8822 31.1091L37.8798 31.1115ZM37.9208 32.2109C36.8503 32.2109 35.7798 32.2109 34.7093 32.2109C34.068 32.2109 34.0945 32.2109 34.0607 32.8667C34.0414 33.2429 34.1644 33.3152 34.5164 33.3128C36.684 33.2959 38.8515 33.3056 41.019 33.3056C41.7158 33.3056 41.6966 33.3056 41.7183 32.6088C41.7279 32.2712 41.6098 32.2013 41.2963 32.2061C40.1704 32.223 39.0468 32.2133 37.9208 32.2133V32.2109ZM39.5049 27.2875C39.5145 27.9217 39.4157 27.8638 40.0184 27.8614C40.6694 27.8614 40.6333 27.9602 40.6309 27.3864C40.6285 26.6968 40.7297 26.7451 40.0932 26.7475C39.4133 26.7475 39.5121 26.6775 39.5049 27.2875V27.2875ZM35.1481 27.2948C35.1553 27.9217 35.071 27.8638 35.6303 27.8614C36.3199 27.8566 36.2524 27.9723 36.2572 27.3141C36.262 26.7451 36.2572 26.7426 35.7292 26.7475C35.0613 26.7523 35.1553 26.6655 35.1481 27.2972V27.2948ZM38.4368 27.2273C38.5091 26.9042 38.4296 26.6944 37.9425 26.733C37.2795 26.786 37.3277 26.6534 37.3301 27.2658C37.3301 27.9578 37.2771 27.859 37.8678 27.859C38.5164 27.859 38.4271 27.9482 38.4368 27.2273V27.2273Z" fill="#FFEFE1"/>
<path d="M26.9892 21.3103C28.1416 21.3103 29.2941 21.3176 30.4466 21.3055C30.7143 21.3031 30.8372 21.3489 30.8348 21.6599C30.8276 22.4387 30.8444 22.4387 30.0536 22.4387C27.8981 22.4387 25.7451 22.4339 23.5896 22.4459C23.2834 22.4459 23.158 22.3929 23.17 22.0505C23.1942 21.3127 23.1724 21.3127 23.903 21.3127C24.9325 21.3127 25.962 21.3127 26.9916 21.3127L26.9892 21.3103Z" fill="#FFEFE1"/>
<path d="M27.0301 23.5021C28.1561 23.5021 29.282 23.5117 30.408 23.4948C30.7214 23.49 30.8348 23.5624 30.8251 23.8975C30.8034 24.5943 30.8227 24.5943 30.1331 24.5943C27.9632 24.5943 25.7956 24.5846 23.6257 24.6039C23.2688 24.6063 23.1097 24.5268 23.1796 24.1579C23.182 24.1458 23.1796 24.1314 23.1796 24.1169C23.1796 23.707 23.3789 23.5021 23.7776 23.5021C24.8626 23.5021 25.9475 23.5021 27.0325 23.5021H27.0301Z" fill="#FFEFE1"/>
<path d="M26.9722 28.9535C25.8342 28.9535 24.6962 28.9414 23.5581 28.9607C23.2495 28.9655 23.1627 28.8835 23.17 28.5749C23.1868 27.842 23.17 27.842 23.9053 27.842C26.0584 27.842 28.2115 27.8516 30.3646 27.8323C30.7238 27.8299 30.8396 27.9143 30.8227 28.2856C30.7937 28.9511 30.8154 28.9535 30.1403 28.9535C29.0843 28.9535 28.0282 28.9535 26.9722 28.9535V28.9535Z" fill="#FFEFE1"/>
<path d="M27.0205 30.0194C28.1585 30.0194 29.299 30.0314 30.437 30.0121C30.7528 30.0073 30.83 30.1062 30.8252 30.4075C30.8107 31.1116 30.8252 31.1116 30.138 31.1116C27.9705 31.1116 25.8029 31.1043 23.6354 31.1188C23.293 31.1188 23.1508 31.0634 23.1701 30.68C23.2038 30.0194 23.1773 30.0194 23.8524 30.0194C24.9084 30.0194 25.9645 30.0194 27.0205 30.0194V30.0194Z" fill="#FFEFE1"/>
<path d="M26.9915 33.3052C25.839 33.3052 24.6865 33.2956 23.5341 33.3125C23.2399 33.3173 23.1676 33.2257 23.1724 32.9436C23.182 32.213 23.1676 32.2106 23.9078 32.2106C26.0609 32.2106 28.2164 32.2203 30.3694 32.201C30.7311 32.1986 30.8806 32.2878 30.8179 32.6543C30.801 32.7483 30.8034 32.8471 30.8179 32.9412C30.8589 33.2329 30.7311 33.3125 30.449 33.3077C29.2965 33.2932 28.144 33.3028 26.9915 33.3028V33.3052Z" fill="#FFEFE1"/>
<path d="M27.0277 34.3735C28.1657 34.3735 29.3037 34.3808 30.4417 34.3687C30.7166 34.3663 30.8251 34.4242 30.8227 34.7256C30.8155 35.485 30.8299 35.485 30.0632 35.485C27.9101 35.485 25.757 35.4778 23.604 35.4923C23.2664 35.4947 23.1555 35.4175 23.1676 35.0655C23.1917 34.3735 23.1724 34.3711 23.8571 34.3711C24.9132 34.3711 25.9692 34.3711 27.0253 34.3711L27.0277 34.3735Z" fill="#FFEFE1"/>
</svg>
