<svg width="64" height="64" viewBox="0 0 64 64" fill="none" xmlns="http://www.w3.org/2000/svg">
<circle cx="32" cy="32" r="32" fill="#F58220"/>
<path d="M31.328 41.7362C31.4086 41.102 30.8624 40.4348 30.1568 40.2955C29.9038 40.246 29.6417 40.2295 29.3833 40.2295C25.087 40.2259 20.7926 40.2222 16.4963 40.235C16.1811 40.235 16.1004 40.1562 16.1114 39.8465C16.1353 39.1408 16.1169 39.1408 16.8079 39.1408C18.2596 39.1408 19.7112 39.1298 21.1628 39.1481C21.4946 39.1518 21.5936 39.0858 21.5936 38.7321C21.5771 31.8056 21.5771 24.8792 21.5734 17.9509C21.5734 16.2134 22.8033 14.9982 24.5372 15C29.5281 15.0055 34.5208 15 39.5118 15.0018C40.8992 15.0018 41.889 15.6928 42.2867 16.9264C42.3784 17.2086 42.4059 17.5 42.4059 17.797C42.4059 24.7472 42.415 31.6975 42.4077 38.6478C42.4077 38.9923 42.4719 39.1023 42.8421 39.0968C44.411 39.073 45.9818 39.0932 47.5508 39.0803C47.8019 39.0785 47.8642 39.1518 47.8623 39.3974C47.8568 40.2222 47.866 40.2222 47.0412 40.2222C42.8751 40.2222 38.7108 40.2222 34.5447 40.2222C33.9655 40.2222 33.4101 40.3028 33.0014 40.7776C32.7759 41.0397 32.6128 41.3311 32.6275 41.7527C33.4908 41.1845 34.4329 41.2853 35.3585 41.2853C39.4055 41.2834 43.4543 41.2871 47.5013 41.2779C47.789 41.2779 47.8825 41.3421 47.877 41.6427C47.8587 42.4198 47.8733 42.4198 47.1109 42.4198C43.381 42.4198 39.6529 42.4198 35.923 42.4198C35.4043 42.4198 34.8837 42.3978 34.365 42.4125C33.1059 42.4455 32.424 43.3912 32.5615 44.3095C32.6018 44.5808 32.4753 44.6248 32.2444 44.6083C31.9988 44.5899 31.7 44.6853 31.5149 44.5753C31.3005 44.4506 31.4544 44.1262 31.4233 43.8916C31.3096 42.9953 30.6278 42.4217 29.6454 42.4217C25.2905 42.4217 20.9374 42.4217 16.5825 42.4217C16.2746 42.4217 16.1206 42.2646 16.1206 41.9506C16.1206 41.5083 16.3418 41.2871 16.7841 41.2871C20.7724 41.2871 24.7608 41.2871 28.7491 41.2871C29.6326 41.2871 30.5233 41.2395 31.3261 41.7362H31.328ZM22.719 29.8408C22.719 32.8156 22.719 35.7885 22.719 38.7632C22.719 38.9227 22.642 39.1188 22.9499 39.117C24.9441 39.1023 26.9382 39.117 28.9324 39.0932C30.0211 39.0803 31.0604 39.1683 31.865 40.0224C31.9713 40.1361 32.0391 40.1251 32.1454 40.0114C32.7906 39.3094 33.6282 39.0913 34.5447 39.0932C36.669 39.0987 38.7933 39.0987 40.9157 39.1188C41.2218 39.1225 41.2768 39.0272 41.2768 38.7431C41.2677 32.7826 41.2677 26.8239 41.2768 20.8634C41.2768 20.5738 41.1888 20.5225 40.9231 20.5225C34.9754 20.5298 29.0277 20.5298 23.08 20.5225C22.7904 20.5225 22.7098 20.5829 22.7098 20.8835C22.7226 23.8693 22.7171 26.855 22.7171 29.8408H22.719ZM29.693 19.3164C29.4713 18.9773 29.3393 18.6438 29.277 18.2827C29.1688 17.6613 29.2532 17.0345 29.2312 16.4113C29.2238 16.2024 29.1725 16.1309 28.9507 16.1327C27.3946 16.1455 25.8367 16.1364 24.2806 16.1529C23.4631 16.1602 22.8876 16.6954 22.7739 17.5074C22.7025 18.0114 22.7409 18.5173 22.7464 19.0232C22.7501 19.3054 22.8619 19.3403 23.1039 19.3384C25.1915 19.3293 27.2791 19.3329 29.3686 19.3329C29.4584 19.3329 29.5482 19.3238 29.6949 19.3164H29.693ZM37.8732 19.3531C38.9106 19.3531 39.948 19.3476 40.9854 19.3586C41.2108 19.3604 41.2988 19.3054 41.2878 19.0672C41.2677 18.6548 41.2878 18.2424 41.2713 17.83C41.2347 16.842 40.6463 16.184 39.6712 16.1584C38.1169 16.1181 36.559 16.1474 35.0047 16.1419C34.8031 16.1419 34.7463 16.2152 34.7591 16.415C34.8123 17.3021 34.7719 18.1819 34.4823 19.0323C34.3834 19.3219 34.5062 19.3641 34.7628 19.3604C35.8002 19.3494 36.8376 19.3567 37.875 19.3567L37.8732 19.3531ZM31.9786 16.1492C31.5186 16.1492 31.0585 16.1529 30.5985 16.1474C30.4445 16.1455 30.3584 16.1712 30.362 16.3563C30.373 16.8402 30.3474 17.3241 30.3749 17.8061C30.4262 18.6932 31.1667 19.3897 32.019 19.3842C32.8676 19.3787 33.4944 18.7464 33.5787 17.83C33.6227 17.3461 33.5732 16.8659 33.5677 16.3857C33.5659 16.1987 33.5054 16.1419 33.3221 16.1474C32.8749 16.1584 32.4259 16.151 31.9786 16.151V16.1492Z" fill="#FFEFE1"/>
<path d="M23.4997 43.4828C25.2391 43.5231 27.4807 43.481 29.7223 43.4828C30.23 43.4828 30.2666 43.5213 30.3748 44.018C30.4279 44.2581 30.4884 44.5019 30.5819 44.7291C30.8312 45.3395 31.3975 45.6932 32.0592 45.6767C32.664 45.6621 33.2139 45.2735 33.4302 44.6778C33.5292 44.4029 33.6043 44.1151 33.6575 43.8255C33.7033 43.5781 33.8371 43.4846 34.068 43.481C34.1633 43.481 34.2568 43.481 34.3521 43.481C38.6704 43.481 42.9905 43.481 47.3087 43.481C47.4975 43.481 47.6863 43.4865 47.8732 43.5011C48.6046 43.5524 48.9693 43.9245 48.9913 44.6503C49.0023 44.9931 49.0041 45.3358 48.9895 45.6767C48.9565 46.4099 48.5532 46.7893 47.8146 46.7985C47.602 46.8003 47.3894 46.7985 47.1767 46.7985C43.5422 46.7985 39.9076 46.804 36.273 46.7893C35.8496 46.7893 35.5801 46.9213 35.3345 47.2695C33.6886 49.6174 30.2043 49.5753 28.6079 47.1962C28.4173 46.9121 28.2046 46.7893 27.8546 46.7893C24.0202 46.8003 20.184 46.7966 16.3496 46.7966C15.369 46.7966 15.0043 46.4319 15.0024 45.4513C15.0024 45.191 14.9969 44.9326 15.0024 44.6723C15.0208 43.9263 15.391 43.5433 16.1315 43.4975C16.3441 43.4846 16.5549 43.4791 16.7675 43.4773C18.8442 43.4773 20.9208 43.4773 23.4997 43.4773V43.4828ZM22.7738 44.6467C20.7687 44.6467 18.7617 44.6467 16.7565 44.6467C16.1462 44.6467 16.1682 44.6467 16.137 45.2643C16.1205 45.6108 16.225 45.6877 16.5622 45.6859C20.5267 45.6694 24.4912 45.6749 28.4558 45.6621C28.8846 45.6621 29.1559 45.8069 29.3502 46.1991C29.8781 47.2585 30.7377 47.845 31.94 47.8597C33.1791 47.8744 34.0918 47.308 34.638 46.2046C34.8433 45.7922 35.1073 45.6566 35.5526 45.6584C39.4457 45.6749 43.3405 45.6731 47.2336 45.6767C47.8476 45.6767 47.8274 45.6767 47.8549 45.0701C47.8696 44.7328 47.7816 44.6357 47.4333 44.6375C43.3039 44.6503 39.1744 44.6485 35.0449 44.6393C34.7572 44.6393 34.6307 44.7145 34.5299 45.0004C34.1157 46.1716 33.1461 46.8241 31.9034 46.8113C30.7853 46.8003 29.8267 46.0763 29.44 44.9234C29.3594 44.6852 29.2347 44.6393 29.0056 44.6393C26.929 44.6485 24.8523 44.6448 22.7757 44.6448L22.7738 44.6467Z" fill="#FFEFE1"/>
<path d="M31.9895 36.947C28.0452 36.947 24.8523 33.7394 24.8541 29.7786C24.8541 25.8452 28.1038 22.6542 32.094 22.6633C35.9669 22.6725 39.1432 25.935 39.1396 29.8995C39.1359 33.7522 35.8954 36.9488 31.9913 36.9488L31.9895 36.947ZM29.8066 24.2854C28.8351 24.553 28.1221 25.1817 27.4073 25.9552C27.9407 25.9699 28.3916 25.99 28.8443 25.9424C29.0203 25.924 29.1596 25.8434 29.2292 25.6748C29.4217 25.211 29.6086 24.7437 29.7974 24.2781C29.8066 24.2726 29.8157 24.2689 29.8212 24.2616C29.8231 24.2598 29.8176 24.2506 29.8157 24.2451L29.8029 24.2836L29.8066 24.2854ZM32.0335 30.3834C31.3737 30.3834 30.7157 30.3834 30.0558 30.3834C29.9257 30.3834 29.7956 30.3559 29.8267 30.5777C29.9055 31.1477 29.9642 31.7214 30.0265 32.2951C30.0448 32.4656 30.1236 32.5316 30.3014 32.5297C31.4323 32.5224 32.5614 32.5224 33.6923 32.5297C33.892 32.5297 33.9562 32.4509 33.9727 32.264C34.024 31.7141 34.0753 31.1624 34.156 30.6162C34.1871 30.4054 34.1156 30.3779 33.9415 30.3798C33.3055 30.3853 32.6695 30.3816 32.0353 30.3816L32.0335 30.3834ZM31.9822 29.2269C32.6292 29.2269 33.278 29.2195 33.925 29.2305C34.1285 29.2342 34.1816 29.1847 34.1505 28.9721C34.0735 28.4479 34.0203 27.9219 33.9727 27.394C33.9544 27.1777 33.8847 27.0934 33.6501 27.0971C32.543 27.1099 31.436 27.1117 30.3289 27.0971C30.0815 27.0934 30.032 27.1979 30.0137 27.4032C29.966 27.9182 29.9239 28.4351 29.8395 28.9464C29.7937 29.214 29.8945 29.2342 30.109 29.2324C30.734 29.2232 31.3572 29.2287 31.9822 29.2287V29.2269ZM36.2125 32.5261C36.4947 32.5261 36.777 32.5261 37.0611 32.5261C37.2077 32.5261 37.347 32.5096 37.4203 32.3574C37.6879 31.8021 37.8712 31.2229 37.9427 30.6107C37.961 30.4494 37.9207 30.3779 37.7392 30.3798C37.0098 30.3889 36.2784 30.3889 35.549 30.3798C35.3565 30.3761 35.3162 30.4567 35.3015 30.6254C35.2502 31.1642 35.1934 31.7013 35.1201 32.2383C35.0871 32.4821 35.1751 32.5444 35.4023 32.5316C35.6718 32.5151 35.943 32.5279 36.2143 32.5279L36.2125 32.5261ZM27.3633 29.2269C27.7171 29.2269 28.0708 29.2195 28.4246 29.2305C28.595 29.236 28.6775 29.1921 28.694 29.0051C28.7435 28.4424 28.8058 27.8797 28.8736 27.3189C28.8956 27.1374 28.8241 27.0989 28.661 27.1007C28.0598 27.1081 27.4605 27.1081 26.8593 27.1007C26.6888 27.1007 26.6045 27.1924 26.5404 27.328C26.2911 27.8522 26.1298 28.4039 26.0492 28.9794C26.0253 29.1536 26.0602 29.2397 26.2654 29.2305C26.6302 29.214 26.9968 29.2269 27.3615 29.2269H27.3633ZM27.3413 30.3834C27.0004 30.3834 26.6577 30.3999 26.3168 30.3779C26.0602 30.3614 26.018 30.4696 26.0528 30.6858C26.139 31.2467 26.3021 31.7837 26.5404 32.3006C26.6229 32.4802 26.7512 32.5297 26.9326 32.5279C27.4971 32.5224 28.0635 32.5187 28.628 32.5297C28.8296 32.5334 28.8993 32.4747 28.8718 32.2676C28.8113 31.7892 28.7472 31.309 28.7233 30.8288C28.705 30.4549 28.5602 30.3248 28.1863 30.3743C27.9095 30.4127 27.6218 30.3816 27.3395 30.3816L27.3413 30.3834ZM36.5974 29.2379C36.9621 29.2379 37.3287 29.2214 37.6934 29.2434C37.9354 29.258 37.9684 29.1591 37.9372 28.9574C37.8511 28.3948 37.6953 27.8559 37.4551 27.3408C37.3745 27.1686 37.2645 27.0971 37.0721 27.1007C36.4947 27.1099 35.9174 27.1099 35.3418 27.1007C35.1531 27.0971 35.0944 27.1539 35.1182 27.3427C35.1879 27.9035 35.2502 28.4644 35.3015 29.0271C35.3162 29.1902 35.3693 29.2489 35.538 29.2415C35.8917 29.2287 36.2455 29.2379 36.5992 29.2379H36.5974ZM31.995 25.9699C32.4551 25.9699 32.9151 25.9662 33.3752 25.9717C33.5328 25.9735 33.6006 25.9222 33.5456 25.7664C33.3257 25.1414 33.0746 24.531 32.5687 24.0728C32.1545 23.6989 31.8337 23.6989 31.4195 24.0747C30.9136 24.5329 30.6625 25.1432 30.4426 25.7682C30.3857 25.9277 30.4627 25.9717 30.6167 25.9699C31.0767 25.9644 31.5368 25.968 31.9968 25.968L31.995 25.9699ZM32.0298 33.6698C31.5698 33.6698 31.1097 33.6734 30.6497 33.6698C30.4884 33.6698 30.3931 33.6991 30.4572 33.8897C30.657 34.4744 30.9045 35.0334 31.3443 35.4806C31.7989 35.9444 32.2003 35.9389 32.653 35.4733C33.0727 35.0408 33.311 34.5056 33.5181 33.9484C33.6061 33.7119 33.5291 33.6624 33.3055 33.6679C32.8803 33.6789 32.4569 33.6716 32.0317 33.6716L32.0298 33.6698ZM29.8395 35.4055C29.6068 34.8263 29.4033 34.3186 29.198 33.8109C29.1651 33.7303 29.1174 33.6698 29.0184 33.6716C28.5089 33.6716 27.9993 33.6716 27.4183 33.6716C28.1038 34.4671 28.8626 35.0133 29.8377 35.4055H29.8395ZM36.5662 25.9387C35.866 25.1469 35.1237 24.5952 34.1578 24.2378C34.3832 24.8023 34.5794 25.2899 34.7755 25.7774C34.8121 25.8654 34.8561 25.9405 34.9753 25.9405C35.4775 25.9369 35.9778 25.9405 36.5662 25.9405V25.9387ZM34.1431 35.4073C35.0559 35.0371 35.7762 34.5441 36.3829 33.886C36.4196 33.8457 36.4617 33.7889 36.4599 33.7394C36.4581 33.6624 36.3774 33.6716 36.3224 33.6716C35.921 33.6734 35.5215 33.6771 35.1201 33.6863C34.9496 33.6899 34.8305 33.7816 34.7645 33.9337C34.5665 34.3956 34.3741 34.8593 34.1431 35.4073Z" fill="#FFEFE1"/>
<path d="M39.6455 17.1886C39.9919 17.1813 40.243 17.4104 40.2467 17.7385C40.2522 18.0758 40.0194 18.3195 39.684 18.3324C39.3486 18.3452 39.103 18.1161 39.0865 17.777C39.0718 17.4416 39.3046 17.196 39.6455 17.1886V17.1886Z" fill="#FFEFE1"/>
<path d="M31.9859 17.1938C32.3323 17.1938 32.5669 17.4248 32.5614 17.7675C32.5577 18.0828 32.3176 18.3284 32.0042 18.3339C31.6779 18.3394 31.4232 18.0828 31.4287 17.7529C31.4323 17.4266 31.6633 17.1975 31.9859 17.1957V17.1938Z" fill="#FFEFE1"/>
<path d="M29.8066 24.2853L29.8195 24.2468C29.8195 24.2468 29.8268 24.2615 29.825 24.2633C29.8176 24.2707 29.8085 24.2743 29.8011 24.2798L29.8085 24.2853H29.8066Z" fill="#FDFEFD"/>
</svg>
