<svg width="64" height="64" viewBox="0 0 64 64" fill="none" xmlns="http://www.w3.org/2000/svg">
<circle cx="32" cy="32" r="32" fill="#F58220"/>
<path d="M21.1181 33.7383C21.1134 33.89 21.1062 34.0416 21.1062 34.1957C21.1062 36.6955 21.1062 39.1954 21.1062 41.6976C21.1062 43.7686 22.5043 45.4178 24.5492 45.7661C24.8004 45.8087 25.0563 45.8111 25.3098 45.8111C28.9873 45.8111 32.6672 45.8111 36.3447 45.8064C36.5604 45.8064 36.6907 45.8561 36.8139 46.0504C37.2072 46.6618 37.5627 47.2992 38.0318 47.8584C37.9892 47.9508 37.911 47.9105 37.8518 47.9105C33.6316 47.9105 29.4115 47.9153 25.189 47.9105C21.7437 47.9058 19.0068 45.1737 19.0021 41.7237C18.9974 36.4941 19.0021 31.2645 19.0021 26.035C19.0021 25.1962 19.3054 24.4829 19.9049 23.8953C22.3337 21.5186 24.7624 19.1444 27.1865 16.763C27.7101 16.2441 28.3215 16 29.056 16C32.2857 16.0071 35.5154 16.0024 38.7427 16C42.2543 16 44.9722 18.6823 44.9912 22.1987C45.0077 25.6559 44.9959 29.1154 44.9959 32.5725C44.9959 35.5652 44.9959 38.5556 44.9959 41.5483C44.9959 42.1691 44.9485 42.7828 44.7732 43.3823C44.7566 43.4392 44.7518 43.5008 44.6879 43.5553C44.5907 43.38 44.503 43.2023 44.4011 43.034C44.0718 42.4867 43.605 42.0696 43.086 41.7094C42.9368 41.6052 42.887 41.4891 42.8894 41.309C42.8965 38.9016 42.8941 36.4941 42.8941 34.0867C42.8941 34.0014 42.8846 33.9184 42.8799 33.8331C42.9225 33.5962 42.8965 33.3568 42.8799 33.1199C42.8846 32.428 42.8918 31.7361 42.8918 31.0442C42.8918 28.087 42.8989 25.1322 42.8894 22.175C42.8823 20.2296 41.6193 18.6444 39.7426 18.1966C39.437 18.1231 39.1242 18.0947 38.8114 18.0947C35.5675 18.0947 32.3236 18.0947 29.0797 18.0947C28.7243 18.0947 28.6745 18.1444 28.6745 18.507C28.6745 19.3268 28.6627 20.1491 28.6817 20.9689C28.6935 21.5092 28.5821 22.0257 28.4376 22.5375L28.4115 22.592L28.3807 22.6916C28.2409 22.9001 28.1296 23.1252 28.0324 23.355C27.4187 24.2649 26.6225 24.9426 25.5823 25.3194C25.1084 25.49 24.6203 25.58 24.1179 25.5966C23.2223 25.625 22.3242 25.663 21.4285 25.6748C21.1655 25.6772 21.1015 25.7743 21.1015 26.016C21.1086 27.4638 21.1015 28.9116 21.1062 30.3594C21.1062 31.2124 21.0565 32.0654 21.1205 32.9185C21.0873 33.1886 21.0897 33.4611 21.1181 33.7336V33.7383Z" fill="#FFEFE1"/>
<path d="M40.3871 34.4088C40.4393 35.4443 40.3966 36.4727 40.117 37.4821C39.8564 38.4205 39.4678 39.2996 38.9038 40.091C38.7616 40.29 38.8209 40.3611 38.9773 40.482C40.162 41.3871 41.3444 42.2923 42.5197 43.2093C43.6168 44.0647 43.7898 45.6452 42.9178 46.7186C42.034 47.8038 40.4511 47.9436 39.3824 47.0314C39.1881 46.8655 39.027 46.6712 38.8872 46.4556C38.091 45.2187 37.2878 43.9841 36.4964 42.7425C36.3897 42.5766 36.321 42.534 36.1338 42.6477C35.7239 42.8989 35.2832 43.0956 34.8377 43.2756C34.3709 43.4131 33.9065 43.5671 33.4255 43.6453C33.006 43.714 32.5795 43.7519 32.1554 43.8041C31.8994 43.7993 31.6435 43.7946 31.3876 43.7898C30.7739 43.7187 30.165 43.624 29.5631 43.4936C29.4446 43.5339 29.3854 43.3799 29.2717 43.406C29.1603 43.342 29.0394 43.2993 28.9115 43.278C27.8547 42.8633 26.8808 42.3041 26.0657 41.5103C23.7293 39.2356 22.8502 36.4703 23.5824 33.3046C24.6724 28.594 29.165 26.0752 33.397 26.8571C35.8021 27.3026 37.6835 28.5585 39.0294 30.5915C39.4962 31.2953 39.8682 32.0583 40.0862 32.8852C40.1028 32.9492 40.1288 33.0132 40.1525 33.0772C40.1715 33.4255 40.2853 33.7549 40.3516 34.0937L40.3824 34.3567C40.3824 34.3567 40.3682 34.3709 40.3705 34.3733C40.3753 34.3852 40.3848 34.397 40.3942 34.4088H40.3871ZM36.9821 31.0441C36.8944 30.8593 36.7736 30.7053 36.5888 30.6081C36.5438 30.5584 36.5058 30.5039 36.4561 30.4565C33.9965 28.1154 30.2029 27.9945 27.6059 30.184C26.6841 30.9612 25.978 31.8971 25.6273 33.0724C25.478 33.307 25.4543 33.5771 25.4046 33.8402C25.0112 35.6623 25.3287 37.3613 26.35 38.9133C27.3002 40.3587 28.6343 41.2805 30.3119 41.7023C30.9825 41.8705 31.6625 41.9084 32.352 41.8658C33.1174 41.8184 33.8567 41.6715 34.5415 41.3089C34.7784 41.2995 34.9372 41.136 35.1196 41.0198C35.1647 40.9985 35.2144 40.9819 35.2571 40.9559C37.2286 39.7285 38.3351 37.9584 38.4891 35.6434C38.6029 33.9255 38.1124 32.371 36.9821 31.0441V31.0441Z" fill="#FFEFE1"/>
<path d="M36.7238 33.8022C36.8115 34.1126 36.7239 34.3614 36.4774 34.5723C36.2974 34.7263 36.1504 34.9182 35.9704 35.0699C35.7997 35.2121 35.8282 35.3092 35.9798 35.4443C36.1836 35.6244 36.3684 35.821 36.558 36.0153C36.8115 36.2783 36.8257 36.6196 36.6006 36.8565C36.3637 37.1029 36.0154 37.0982 35.7405 36.8376C35.5201 36.6267 35.3045 36.411 35.096 36.1883C35.0012 36.0864 34.942 36.0983 34.8543 36.1883C34.6505 36.4016 34.442 36.6125 34.2287 36.8186C33.942 37.0958 33.5984 37.1077 33.352 36.8518C33.1174 36.6101 33.1411 36.2712 33.4136 35.994C33.5984 35.8068 33.7738 35.6101 33.9705 35.4372C34.1245 35.3021 34.1529 35.2121 33.9799 35.0675C33.7738 34.8922 33.5913 34.6908 33.4018 34.4965C33.1364 34.2216 33.1198 33.878 33.3591 33.6387C33.6056 33.3923 33.9562 33.4112 34.2358 33.6908C34.4396 33.8946 34.6482 34.0936 34.8448 34.3045C34.9443 34.4112 35.0107 34.4064 35.1102 34.2998C35.2879 34.1079 35.4775 33.9254 35.6647 33.7406C35.9869 33.4231 36.1646 33.3923 36.5675 33.5866L36.7238 33.7974V33.8022Z" fill="#FFEFE1"/>
<path d="M26.9993 35.2856C27.0135 35.0724 27.1083 34.8828 27.3357 34.7857C27.5561 34.6932 27.7717 34.7098 27.9518 34.8757C28.158 35.0653 28.3594 35.2596 28.5442 35.4681C28.6579 35.596 28.729 35.5866 28.8475 35.4704C29.4588 34.871 30.0773 34.2809 30.6886 33.6838C30.8853 33.4919 31.108 33.435 31.3616 33.5345C31.7526 33.6862 31.8379 34.1838 31.5203 34.5013C31.0227 34.9989 30.5133 35.4823 30.0086 35.9728C29.729 36.2453 29.4494 36.5154 29.1698 36.7879C28.8475 37.1007 28.5347 37.1007 28.2172 36.7879C27.8807 36.4538 27.5466 36.115 27.2125 35.7809C27.0822 35.6505 26.9922 35.5036 26.9969 35.2856H26.9993Z" fill="#FFEFE1"/>
</svg>
