<svg width="64" height="64" viewBox="0 0 64 64" fill="none" xmlns="http://www.w3.org/2000/svg">
<circle cx="32" cy="32" r="32" fill="#F58220"/>
<path d="M45.6535 20.0888C45.6535 19.2666 45.3992 18.5687 44.7974 17.9923C44.2492 17.4695 43.7152 16.9355 43.1953 16.3845C42.5906 15.7431 41.969 15.1498 41.0507 15H31.1923C31.0595 15.0876 30.9041 15.0085 30.7628 15.0593C29.3105 15.0593 27.8581 15.0311 26.4058 15.0593C25.2191 15.0819 24.2697 15.9692 24.0888 17.1474C23.9815 17.8397 24.0662 18.5404 24.0352 19.2355C24.0267 19.4248 24.1228 19.4474 24.2725 19.4446C24.6624 19.439 25.0523 19.4305 25.4423 19.4446C25.6542 19.4531 25.6994 19.3711 25.6938 19.1762C25.6825 18.693 25.6938 18.207 25.6881 17.7238C25.6796 16.9666 25.9876 16.6558 26.7562 16.653C28.1379 16.6473 29.5196 16.6417 30.9013 16.6388C31.0425 16.6445 31.1838 16.653 31.3251 16.653C34.4219 16.653 37.5159 16.6586 40.6127 16.653C40.98 16.653 41.2711 16.7688 41.5282 17.0288C42.2148 17.7295 42.9043 18.4274 43.6078 19.1112C43.9017 19.3966 44.0203 19.713 44.0203 20.1199C44.0119 23.1461 44.0147 26.1751 44.0147 29.2013C44.0147 33.0553 44.0147 36.9094 44.0147 40.7663C44.0147 41.4896 43.7011 41.8089 42.9862 41.8146C42.6556 41.8146 42.325 41.8231 41.9944 41.8146C41.8221 41.8089 41.7345 41.8457 41.7401 42.0435C41.7514 42.4447 41.7458 42.8487 41.7429 43.25C41.7429 43.363 41.7514 43.4647 41.9068 43.4591C42.4493 43.4421 42.9975 43.5212 43.5344 43.4223C44.8369 43.185 45.645 42.1932 45.6507 40.8426C45.6592 39.0794 45.6507 37.3191 45.6507 35.556C45.6507 30.3993 45.6507 25.2455 45.6507 20.0888H45.6535Z" fill="#FFEFE1"/>
<path d="M37.6628 21.4508C37.0864 20.8546 36.4055 20.5777 35.5747 20.5833C33.1165 20.6003 30.6611 20.589 28.2028 20.5918C27.423 20.5918 26.6431 20.6031 25.8661 20.6088C24.4025 20.6059 22.9417 20.589 21.478 20.6003C20.3365 20.6088 19.4577 21.2954 19.1215 22.386C19.0932 22.4793 19.1102 22.6036 19 22.663V46.9345C19.1074 46.9826 19.0848 47.0956 19.113 47.1775C19.4719 48.3304 20.3591 48.9972 21.5543 49C22.9473 49 24.3403 48.9915 25.7305 48.9887C25.8379 48.9944 25.9424 49 26.0498 49C30.0197 49 33.9896 49 37.9595 49C39.5673 49 40.6212 47.9461 40.624 46.3383C40.624 39.4327 40.624 32.5298 40.624 25.6241C40.624 24.816 40.3556 24.1294 39.7679 23.5587C39.0558 22.8664 38.3579 22.1628 37.6685 21.448L37.6628 21.4508ZM24.9874 47.4431C25.0184 47.4431 25.0524 47.4431 25.0834 47.4431C25.0524 47.4431 25.0184 47.4431 24.9874 47.4431ZM25.1795 47.4375C25.2445 47.4375 25.3066 47.4318 25.3716 47.4318C25.3066 47.4318 25.2445 47.4346 25.1795 47.4375ZM38.146 47.3668C38.016 47.3753 37.886 47.3725 37.7561 47.3725C33.5149 47.3725 29.2709 47.3753 25.0297 47.3781C24.8885 47.3781 24.7472 47.3894 24.6059 47.3951C23.6367 47.3923 22.6704 47.3894 21.7012 47.3838C20.9299 47.381 20.6445 47.0843 20.6445 46.3044C20.6445 38.5878 20.6445 30.8712 20.6445 23.1546C20.6445 22.5951 20.9751 22.2363 21.5317 22.2306C22.6534 22.2193 23.7752 22.2193 24.8969 22.2165C24.9534 22.1939 25.01 22.177 25.0693 22.1685C25.1258 22.16 25.1852 22.1572 25.2445 22.1572C25.1852 22.1572 25.1286 22.1572 25.0693 22.1685C25.0128 22.177 24.9534 22.1911 24.8969 22.2165C25.0382 22.2222 25.1795 22.2306 25.3208 22.2306C28.0729 22.2306 30.8278 22.2391 33.5799 22.2278C33.8794 22.2278 33.9811 22.2815 33.9755 22.6093C33.9529 23.8045 33.9642 24.9969 33.967 26.1921C33.967 26.9324 34.2552 27.2206 34.9955 27.2206C36.1879 27.2206 37.3831 27.2347 38.5755 27.2121C38.9004 27.2065 38.9598 27.3053 38.9598 27.6105C38.9513 33.6657 38.9541 39.7209 38.9541 45.7732C38.9541 46.0106 38.9569 46.2451 38.9626 46.4824C38.9711 46.9854 38.6518 47.3329 38.1488 47.3668H38.146ZM24.8659 47.4375C24.8235 47.4375 24.7783 47.429 24.7359 47.4233C24.7783 47.429 24.8235 47.4346 24.8659 47.4375ZM38.5444 25.5902C38.1319 25.5902 37.7193 25.5902 37.304 25.5902C36.8321 25.5902 36.3602 25.5846 35.8884 25.5931C35.7019 25.5959 35.6115 25.5591 35.6143 25.3444C35.6256 24.3865 35.6256 23.4315 35.6143 22.4736C35.6143 22.2504 35.7019 22.2165 35.8884 22.2419C36.0975 22.273 36.2614 22.3719 36.4083 22.5188C37.1655 23.2817 37.9256 24.039 38.6829 24.8019C38.7479 24.8669 38.8128 24.9404 38.858 25.0223C39.0926 25.432 39.0022 25.5902 38.5444 25.5902V25.5902Z" fill="#FFEFE1"/>
<path d="M34.761 28.9273C34.6564 28.9217 34.5491 28.9273 34.4417 28.9273C31.7009 28.9273 28.9601 28.9301 26.2193 28.933C26.0893 28.933 25.9622 28.9471 25.8322 28.9527C24.9478 28.9471 24.0662 28.933 23.1818 28.9443C22.6789 28.9499 22.3313 29.3031 22.3313 29.7496C22.3313 30.2158 22.6958 30.552 23.2186 30.552C24.2894 30.552 25.3603 30.5435 26.434 30.5407C29.2087 30.5464 31.9835 30.5577 34.761 30.5577C35.2639 30.5577 35.6086 30.2016 35.6086 29.7467C35.6086 29.2918 35.2639 28.9556 34.761 28.9273V28.9273Z" fill="#FFEFE1"/>
<path d="M32.283 39.7464C32.283 39.266 31.9156 38.9326 31.3618 38.9298C30.3107 38.9241 29.2596 38.9241 28.2085 38.9298C27.1094 38.9326 26.013 38.9439 24.9139 38.9524C24.3375 38.9496 23.7611 38.9298 23.1847 38.9467C22.6845 38.958 22.3342 39.3141 22.3342 39.7577C22.3342 40.2211 22.7015 40.5573 23.2242 40.5601C23.9193 40.5601 24.6116 40.5545 25.3067 40.5488C27.3269 40.5545 29.3472 40.5601 31.3675 40.5629C31.9156 40.5629 32.2858 40.2267 32.283 39.7492V39.7464Z" fill="#FFEFE1"/>
<path d="M31.5737 32.2783C31.4466 32.2585 31.3138 32.2585 31.1866 32.2585C29.8389 32.2585 28.4939 32.2585 27.1461 32.2585C26.403 32.2585 25.6598 32.2727 24.9167 32.2811C24.329 32.2783 23.7385 32.2585 23.1507 32.2755C22.6732 32.2896 22.3342 32.6485 22.337 33.0808C22.337 33.5357 22.6958 33.8776 23.1931 33.8804C23.8995 33.8861 24.6059 33.8748 25.3123 33.8691C25.7955 33.8748 26.2815 33.8832 26.7647 33.8832C28.3357 33.8832 29.9067 33.8889 31.4777 33.8804C31.9213 33.8804 32.2491 33.5611 32.283 33.1429C32.3197 32.7106 32.0258 32.3461 31.5766 32.2727L31.5737 32.2783Z" fill="#FFEFE1"/>
<path d="M31.5031 35.6011C31.3985 35.5898 31.2912 35.5926 31.1838 35.5926C29.9208 35.5926 28.6549 35.5926 27.3919 35.5926C26.5894 35.5926 25.787 35.6067 24.9845 35.6152C24.3714 35.6124 23.7611 35.5926 23.1507 35.6096C22.676 35.6237 22.337 35.9854 22.3398 36.4177C22.3426 36.8698 22.6987 37.2145 23.196 37.2173C23.9023 37.2229 24.6087 37.2116 25.3151 37.206C25.8944 37.2116 26.4736 37.2201 27.05 37.2201C28.5165 37.2201 29.9801 37.2258 31.4466 37.2201C31.9269 37.2201 32.2717 36.8867 32.2886 36.4431C32.3056 35.9995 31.9834 35.6491 31.5059 35.5982L31.5031 35.6011Z" fill="#FFEFE1"/>
<path d="M34.8288 44.0526C33.4838 44.0329 32.1389 44.0159 30.7939 44.0668C30.452 44.0668 30.1101 44.0413 29.7682 44.0639C29.3105 44.0922 28.9855 44.4454 28.9912 44.8692C28.9968 45.3128 29.3416 45.6547 29.8163 45.666C30.2062 45.6745 30.5961 45.6604 30.9832 45.6576C32.2575 45.6632 33.5319 45.6773 34.8062 45.6689C35.2668 45.666 35.5974 45.3185 35.6115 44.8918C35.6256 44.4482 35.3007 44.0611 34.8288 44.0526Z" fill="#FFEFE1"/>
</svg>
