<svg width="64" height="64" viewBox="0 0 64 64" fill="none" xmlns="http://www.w3.org/2000/svg">
<circle cx="32" cy="32" r="32" fill="#F58220"/>
<path d="M21.6843 17H42.3143C43.2222 17.3076 43.5357 17.9552 43.512 18.8897C43.4706 20.5044 43.5031 22.119 43.4943 23.7337C43.4943 23.9437 43.5327 24.0176 43.7604 24.0117C44.343 23.994 44.9256 24.0028 45.5111 24.0058C46.3451 24.0117 46.9986 24.6564 46.9986 25.4844C47.0016 27.1612 47.0016 28.838 46.9986 30.5148C46.9986 31.3428 46.3421 31.9934 45.5141 31.9964C44.9522 31.9993 44.3873 32.0171 43.8255 31.9904C43.5445 31.9786 43.4913 32.0614 43.4913 32.3305C43.5002 36.6836 43.4972 41.0397 43.4972 45.3928C43.4972 46.3924 42.888 47.0016 41.8855 47.0016C35.2908 47.0016 28.696 46.9927 22.1043 47.0134C21.2378 47.0134 20.4807 46.3244 20.4896 45.3869C20.5192 42.0422 20.4955 38.7005 20.5103 35.3558C20.5103 35.0423 20.4245 34.9832 20.1347 34.995C19.5847 35.0187 19.0316 35.0098 18.4786 35.0009C17.8458 34.9921 17.4052 34.6727 17.1242 34.1138C17.0858 34.0339 17.1005 33.9245 17 33.8801V28.1282C17.0503 28.1194 17.0532 28.078 17.071 28.0395C17.3578 27.3268 17.834 27.0074 18.6029 27.0074C19.1322 27.0074 19.6645 26.9897 20.1939 27.0133C20.463 27.0252 20.5103 26.9424 20.5103 26.688C20.5014 23.9821 20.5044 21.2792 20.5044 18.5733C20.5044 18.4284 20.5044 18.2864 20.5399 18.1415C20.6966 17.5294 21.1313 17.207 21.6873 17.003L21.6843 17ZM24.9965 20.4097C24.8072 20.6907 24.6416 20.9302 24.4878 21.1757C24.3429 21.4093 24.1537 21.5631 23.8698 21.4862C23.577 21.4034 23.4883 21.1786 23.4912 20.8829C23.5001 19.9987 23.4912 19.1115 23.4971 18.2273C23.4971 18.0557 23.4617 17.9907 23.2783 17.9996C22.9027 18.0143 22.5272 18.0025 22.1545 18.0055C21.6666 18.0055 21.4951 18.177 21.4951 18.659C21.4951 21.3472 21.4951 24.0324 21.4892 26.7206C21.4892 26.9483 21.5335 27.0133 21.773 27.0133C23.3463 27.0015 24.9196 27.0045 26.4929 27.0074C27.3387 27.0074 27.9922 27.6669 27.9952 28.5127C27.9981 30.1688 27.9981 31.8248 27.9952 33.4809C27.9952 34.3503 27.3446 35.0009 26.4781 35.0069C26.0522 35.0069 25.6234 35.0157 25.1976 35.0039C25.029 34.998 24.9876 35.0542 24.9935 35.2139C25.0054 35.5983 24.9906 35.9857 24.9994 36.3702C25.0054 36.6304 24.9492 36.8433 24.6889 36.9587C24.4228 37.077 24.2306 36.9498 24.0531 36.7694C23.5829 36.2962 23.0979 35.8379 22.6454 35.3499C22.4089 35.0956 22.1693 34.9743 21.8085 34.995C21.5513 35.0098 21.4892 35.0631 21.4892 35.3203C21.498 38.6443 21.4951 41.9653 21.4951 45.2893C21.4951 45.8571 21.6459 46.0079 22.2137 46.0079C28.7345 46.0079 35.2553 46.0079 41.7761 46.0079C42.3439 46.0079 42.4947 45.8571 42.4947 45.2893C42.4947 40.9658 42.4947 36.6452 42.4947 32.3217C42.4947 32.2596 42.4947 32.1974 42.4947 32.1353C42.4947 32.0851 42.4947 32.0378 42.4296 32.0111C42.2552 31.9372 41.6696 32.0437 41.5277 32.1856C40.9806 32.7298 40.4364 33.2739 39.8893 33.818C39.7237 33.9836 39.5315 34.0664 39.2979 33.96C39.0702 33.8565 38.9874 33.6731 38.9903 33.4306C38.9962 33.0255 38.9844 32.6174 38.9962 32.2122C39.0021 32.0437 38.946 32.0023 38.7863 32.0052C38.3811 32.0141 37.973 32.0082 37.5679 32.0052C36.6334 32.0052 35.9946 31.3694 35.9946 30.4438C35.9946 28.8202 35.9946 27.1937 35.9946 25.5702C35.9946 24.6416 36.6334 24.0058 37.5649 24.0058C39.1175 24.0058 40.6701 24.0028 42.2226 24.0117C42.4296 24.0117 42.5036 23.9762 42.5036 23.7485C42.4917 22.051 42.4977 20.3536 42.4977 18.6561C42.4977 18.1888 42.3232 18.0084 41.8618 18.0084C36.8315 18.0084 31.7982 18.0084 26.7679 18.0025C26.5165 18.0025 26.487 18.0824 26.4899 18.3012C26.5017 19.1854 26.4899 20.0726 26.4958 20.9568C26.4958 21.2171 26.3894 21.4034 26.1439 21.4832C25.8955 21.566 25.6974 21.4655 25.5554 21.2526C25.378 20.9864 25.1976 20.7203 24.9935 20.4186L24.9965 20.4097ZM23.9792 35.2671C23.9792 34.9832 23.9792 34.788 23.9792 34.5958C23.9792 34.17 24.1596 33.9896 24.5795 33.9866C25.1739 33.9866 25.7683 33.9866 26.3598 33.9866C26.7975 33.9866 26.9779 33.8032 26.9779 33.3597C26.9779 31.7864 26.9779 30.2131 26.9779 28.6428C26.9779 28.1992 26.7975 28.0218 26.3568 28.0188C23.784 28.0188 21.2112 28.0188 18.6383 28.0188C18.1918 28.0188 18.0114 28.1963 18.0114 28.6339C18.0114 30.2072 18.0114 31.7805 18.0114 33.3508C18.0114 33.8092 18.1888 33.9836 18.6561 33.9836C19.8952 33.9836 21.1343 33.9896 22.3734 33.9807C22.6218 33.9807 22.8081 34.0546 22.9767 34.235C23.2872 34.5662 23.6066 34.8856 23.9792 35.2671V35.2671ZM39.9987 32.2862C40.3714 31.9136 40.6937 31.603 40.9983 31.2748C41.1817 31.0796 41.3828 30.9938 41.6578 30.9968C42.8969 31.0086 44.136 31.0027 45.3751 30.9998C45.8128 30.9998 45.9961 30.8134 45.9991 30.3699C45.9991 28.7877 45.9991 27.2026 45.9991 25.6205C45.9991 25.1828 45.8128 24.9994 45.3692 24.9994C42.7875 24.9994 40.2028 24.9994 37.6211 24.9994C37.1805 24.9994 37.0001 25.1857 37.0001 25.6293C37.0001 27.2115 37.0001 28.7966 37.0001 30.3787C37.0001 30.8164 37.1864 30.9998 37.63 30.9998C38.2333 30.9998 38.8395 30.9998 39.4428 30.9998C39.8124 30.9998 39.9928 31.189 40.0017 31.5587C40.0047 31.7746 40.0017 31.9904 40.0017 32.2832L39.9987 32.2862ZM24.5145 19.2564C24.6653 19.0849 24.8102 18.9843 25.0113 18.9814C25.2065 18.9814 25.3248 19.1174 25.4815 19.2209C25.4815 19.0464 25.4815 18.9015 25.4815 18.7566C25.4815 17.9582 25.4815 17.9611 24.6889 18.0143C24.5529 18.0232 24.5115 18.0587 24.5145 18.1947C24.5233 18.5348 24.5145 18.872 24.5145 19.2564Z" fill="#FFEFE1"/>
<path d="M31.9669 41.0043C29.4148 41.0043 26.8626 40.9984 24.3105 41.0102C24.0503 41.0102 23.9822 40.9511 23.9911 40.6908C24.0118 40.0047 23.997 40.0047 24.689 40.0047C29.6779 40.0047 34.6669 40.0047 39.6588 39.9958C39.9427 39.9958 40.0196 40.0668 40.0107 40.3478C39.99 41.0043 40.0048 41.0043 39.3453 41.0043C36.8878 41.0043 34.4273 41.0043 31.9698 41.0043H31.9669Z" fill="#FFEFE1"/>
<path d="M34.4687 43.0033C32.7387 43.0033 31.0087 42.9974 29.2816 43.0092C29.048 43.0092 28.9888 42.956 28.9918 42.7223C29.0066 42.0037 28.9918 42.0037 29.7193 42.0037C33.0433 42.0037 36.3643 42.0067 39.6883 41.9978C39.9485 41.9978 40.0165 42.0569 40.0106 42.3172C39.9899 43.0062 40.0047 43.0062 39.3156 43.0062H34.4716L34.4687 43.0033Z" fill="#FFEFE1"/>
<path d="M35.0188 36.0005C36.5802 36.0005 38.1446 36.0065 39.706 35.9946C39.9604 35.9946 40.0106 36.0686 40.0047 36.3051C39.9899 37.0031 40.0018 37.0031 39.2891 37.0031C36.2904 37.0031 33.2887 37.0001 30.2901 37.009C30.0387 37.009 29.9855 36.938 29.9914 36.7014C30.0062 36.0035 29.9943 36.0035 30.7071 36.0035C32.1443 36.0035 33.5815 36.0035 35.0188 36.0035V36.0005Z" fill="#FFEFE1"/>
<path d="M29.4974 39.0021C28.4151 39.0021 27.3327 38.9962 26.2474 39.005C26.0463 39.005 25.9871 38.9577 25.9901 38.7507C25.9931 37.9996 25.9871 37.9996 26.7472 37.9996C28.7374 37.9996 30.7247 38.0025 32.7149 37.9937C32.9486 37.9937 33.0077 38.0469 33.0048 38.2805C32.9929 38.9991 33.0048 38.9991 32.2773 38.9991C31.3516 38.9991 30.423 38.9991 29.4974 38.9991V39.0021Z" fill="#FFEFE1"/>
<path d="M31.9875 27.5014C31.0708 27.5014 30.154 27.4954 29.2402 27.5043C29.0598 27.5043 28.9918 27.4747 28.9918 27.2707C28.9918 26.4988 28.9829 26.4988 29.7607 26.4988C31.4168 26.4988 33.0729 26.5018 34.726 26.4929C34.9359 26.4929 35.0099 26.5284 35.004 26.7591C34.9951 27.4984 35.004 27.4984 34.2676 27.4984H31.9875V27.5014Z" fill="#FFEFE1"/>
<path d="M31.9993 29.5003C31.0826 29.5003 30.1658 29.4944 29.252 29.5063C29.0509 29.5063 28.9918 29.4589 28.9947 29.2519C28.9977 28.5008 28.9918 28.5008 29.7518 28.5008C31.4079 28.5008 33.0639 28.5067 34.7171 28.4949C34.9477 28.4949 35.0128 28.5451 35.0069 28.7817C34.9921 29.5003 35.0069 29.5003 34.2823 29.5003H32.0023H31.9993Z" fill="#FFEFE1"/>
<path d="M31.9993 31.5025C31.0826 31.5025 30.1658 31.4966 29.252 31.5085C29.0509 31.5085 28.9918 31.4611 28.9947 31.2541C28.9977 30.503 28.9918 30.503 29.7518 30.503C31.4079 30.503 33.0639 30.5089 34.7171 30.4971C34.9477 30.4971 35.0128 30.5473 35.0069 30.7839C34.9921 31.5025 35.0069 31.5025 34.2794 31.5025H31.9993V31.5025Z" fill="#FFEFE1"/>
<path d="M31.9993 33.5016C31.0826 33.5016 30.1658 33.4957 29.252 33.5075C29.0509 33.5075 28.9918 33.4602 28.9947 33.2532C28.9977 32.502 28.9918 32.502 29.7518 32.502C31.4079 32.502 33.0639 32.5079 34.7171 32.4961C34.9477 32.4961 35.0128 32.5434 35.0069 32.783C34.9921 33.5016 35.0069 33.5016 34.2823 33.5016H32.0023H31.9993Z" fill="#FFEFE1"/>
<path d="M26.0255 42.0038C26.6081 42.0038 27.1907 42.0097 27.7732 42.0009C27.9477 41.9979 27.998 42.0423 28.0009 42.2227C28.0128 43.0063 28.0187 43.0063 27.2468 43.0063C26.2473 43.0063 25.2477 43.0004 24.2482 43.0093C24.05 43.0093 23.9879 42.9649 23.9879 42.7579C23.9938 42.0068 23.985 42.0068 24.742 42.0068C25.1679 42.0068 25.5967 42.0068 26.0225 42.0068L26.0255 42.0038Z" fill="#FFEFE1"/>
<path d="M38.4699 39.0021C38.044 39.0021 37.6152 38.9961 37.1894 39.005C37.0415 39.008 37.0001 38.9666 36.9942 38.8157C36.9617 37.9995 36.9558 37.9995 37.7808 37.9995C38.4462 37.9995 39.1146 38.0055 39.78 37.9966C39.9544 37.9966 40.0047 38.0409 40.0077 38.2184C40.0195 39.0021 40.0254 39.0021 39.2536 39.0021C38.9933 39.0021 38.7331 39.0021 38.4729 39.0021H38.4699Z" fill="#FFEFE1"/>
<path d="M27.998 36.0034H28.2464C29.0774 36.0034 29.0715 36.0034 29.0005 36.8463C28.9917 36.9675 28.9591 37.006 28.8379 37.006C28.276 37 27.7141 37 27.1522 37.006C27.031 37.006 26.9778 36.9675 26.9955 36.8463C26.9955 36.8374 26.9955 36.8256 26.9955 36.8137C26.9679 36.2716 27.2183 36.0005 27.7467 36.0005H27.9951L27.998 36.0034Z" fill="#FFEFE1"/>
<path d="M34.995 39.0021C34.7348 39.0021 34.4745 38.9903 34.2143 39.005C34.0309 39.0169 33.9954 38.9459 33.9954 38.7773C33.9866 37.9996 33.9807 37.9996 34.7555 37.9996C35.0985 37.9996 35.4445 38.0114 35.7876 37.9966C35.9709 37.9877 36.0064 38.0558 36.0064 38.2243C36.0153 39.0021 36.0212 39.0021 35.2464 39.0021H34.995V39.0021Z" fill="#FFEFE1"/>
<path d="M24.9965 38.5318C24.9965 38.8453 24.8408 39.002 24.5293 39.002C24.1744 39.002 23.9969 38.8255 23.9969 38.4726C23.9969 38.1592 24.1527 38.0024 24.4642 38.0024C24.8191 38.0024 24.9965 38.1789 24.9965 38.5318Z" fill="#FFEFE1"/>
<path d="M22.4946 29.4854C23.4202 29.4854 24.3458 29.4913 25.2715 29.4824C25.4548 29.4824 25.5199 29.5179 25.5199 29.719C25.5258 30.5204 25.5347 30.5204 24.748 30.5204C23.0831 30.5204 21.4181 30.5175 19.7561 30.5263C19.5462 30.5263 19.4752 30.4849 19.4752 30.2572C19.4811 29.4883 19.4723 29.4883 20.2471 29.4883C21.0219 29.4883 21.7434 29.4883 22.4946 29.4883V29.4854Z" fill="#FFEFE1"/>
<path d="M22.5301 31.4847C23.4468 31.4847 24.3606 31.4906 25.2774 31.4788C25.4726 31.4788 25.5169 31.532 25.5199 31.7213C25.5229 32.5168 25.5317 32.5168 24.7421 32.5168C23.0772 32.5168 21.4122 32.5108 19.7502 32.5227C19.5284 32.5227 19.4752 32.4665 19.4752 32.2477C19.4811 31.4847 19.4752 31.4847 20.2234 31.4847C20.9716 31.4847 21.7641 31.4847 22.533 31.4847H22.5301Z" fill="#FFEFE1"/>
<path d="M41.4863 27.5014C40.5695 27.5014 39.6557 27.4954 38.739 27.5043C38.5527 27.5043 38.4935 27.4659 38.4935 27.2677C38.4935 26.4988 38.4817 26.4988 39.2358 26.4988C40.9007 26.4988 42.5657 26.5018 44.2306 26.4929C44.4436 26.4929 44.5116 26.5373 44.5086 26.762C44.4998 27.4984 44.5086 27.4984 43.7664 27.4984C43.0241 27.4984 42.2463 27.4984 41.4893 27.4984L41.4863 27.5014Z" fill="#FFEFE1"/>
<path d="M41.4921 29.5006C40.5872 29.5006 39.6823 29.4946 38.7774 29.5065C38.5733 29.5065 38.4905 29.4799 38.4935 29.2433C38.5024 28.501 38.4935 28.501 39.2298 28.501C40.883 28.501 42.539 28.504 44.1921 28.498C44.4139 28.498 44.5174 28.5247 44.5086 28.7908C44.4908 29.5006 44.5056 29.5035 43.8018 29.5035C43.0329 29.5035 42.261 29.5035 41.4921 29.5035V29.5006Z" fill="#FFEFE1"/>
<path d="M34.3533 23.8018L34.3414 19.6616H33.3774L31.9579 22.0511L30.5029 19.6616H29.5388V23.8018H30.6212V21.6667L31.6799 23.3937H32.2004L33.265 21.6075L33.2768 23.8018H34.3533Z" fill="#FFEFE1"/>
</svg>
