<svg width="64" height="64" viewBox="0 0 64 64" fill="none" xmlns="http://www.w3.org/2000/svg">
<circle cx="32" cy="32" r="32" fill="#F58220"/>
<path d="M16.5014 45.998H16.3698C16.1513 45.8543 15.8842 45.8219 15.6677 45.6641C15.346 45.4294 15.1841 45.0875 15 44.7576V20.2241C15.0223 20.2039 15.0567 20.1897 15.0647 20.1655C15.3602 19.3339 15.9834 19.004 16.8271 19.004C26.7518 19.004 36.6765 19.0081 46.6032 19C47.8759 19 48.4505 19.9146 48.4485 20.8393C48.4242 27.8543 48.4344 34.8674 48.4344 41.8824C48.4344 42.7201 48.4404 43.5578 48.4323 44.3955C48.4242 45.2291 47.7646 45.9029 46.9411 45.9433C46.9188 45.9413 46.8986 45.9373 46.8764 45.9373C36.8404 45.9373 26.8064 45.9373 16.7705 45.9373C16.6814 45.9373 16.5722 45.8887 16.5054 46L16.5014 45.998ZM31.701 44.8851C36.6299 44.8851 41.5589 44.8851 46.4879 44.8851C47.19 44.8851 47.3336 44.7455 47.3336 44.0616C47.3336 36.3424 47.3336 28.6212 47.3336 20.902C47.3336 20.2525 47.1799 20.0987 46.5324 20.0987C36.6522 20.0987 26.772 20.0987 16.8919 20.0987C16.2484 20.0987 16.0947 20.2545 16.0947 20.906C16.0947 28.6252 16.0947 36.3464 16.0947 44.0656C16.0947 44.7374 16.2424 44.8851 16.9121 44.8851C21.8411 44.8851 26.77 44.8851 31.699 44.8851H31.701Z" fill="#FFEFE1"/>
<path d="M46.9391 45.9394C46.933 45.9576 46.9289 45.9778 46.931 45.9981H16.5013C16.5681 45.8868 16.6774 45.9354 16.7664 45.9354C26.8024 45.9333 36.8363 45.9333 46.8723 45.9354C46.8945 45.9354 46.9148 45.9394 46.937 45.9414L46.9391 45.9394Z" fill="#FFEFE1"/>
<path d="M31.7172 37.35C27.3426 37.35 22.9681 37.348 18.5935 37.3561C18.3082 37.3561 18.2111 37.3014 18.2111 36.9898C18.2212 31.8343 18.2212 26.6807 18.2111 21.5251C18.2111 21.2176 18.2981 21.1528 18.5915 21.1528C27.3406 21.1609 36.0897 21.1609 44.8408 21.1528C45.1322 21.1528 45.2233 21.2156 45.2212 21.5231C45.2111 26.6787 45.2111 31.8322 45.2212 36.9878C45.2212 37.2994 45.1282 37.3561 44.8408 37.3561C40.4663 37.348 36.0917 37.35 31.7172 37.35V37.35ZM31.6808 36.2614C35.7053 36.2614 39.7318 36.2574 43.7563 36.2695C44.0578 36.2695 44.1266 36.1906 44.1266 35.8972C44.1165 31.4721 44.1165 27.049 44.1266 22.6238C44.1266 22.3406 44.076 22.2455 43.7644 22.2475C35.7356 22.2576 27.7068 22.2576 19.6781 22.2475C19.3806 22.2475 19.3078 22.3203 19.3078 22.6178C19.3179 27.0429 19.3199 31.466 19.3078 35.8911C19.3078 36.221 19.4049 36.2715 19.7064 36.2695C23.6985 36.2594 27.6907 36.2634 31.6848 36.2634L31.6808 36.2614Z" fill="#FFEFE1"/>
<path d="M41.9413 41.6659C40.6018 41.6659 39.2644 41.67 37.9249 41.6619C37.7205 41.6619 37.6436 41.7024 37.6517 41.9249C37.67 42.4793 37.6517 43.0337 37.6619 43.5882C37.6659 43.7743 37.6072 43.8289 37.4231 43.8269C36.4984 43.8188 35.5737 43.8168 34.647 43.8269C34.4427 43.8289 34.388 43.7642 34.3941 43.5679C34.4062 43.058 34.382 42.5441 34.4042 42.0342C34.4164 41.7509 34.3557 41.6558 34.0441 41.6578C31.9539 41.674 29.8658 41.6619 27.7756 41.672C27.4964 41.672 27.3831 41.6295 27.3932 41.3098C27.4195 40.5733 27.4013 40.5733 28.1358 40.5733C30.1268 40.5733 32.1198 40.5693 34.1108 40.5794C34.3314 40.5794 34.4123 40.5369 34.4042 40.2981C34.386 39.7437 34.4042 39.1893 34.3941 38.6349C34.3901 38.4629 34.4427 38.4123 34.6126 38.4144C35.5596 38.4225 36.5065 38.4225 37.4534 38.4144C37.6416 38.4144 37.6619 38.4913 37.6598 38.645C37.6517 39.1893 37.67 39.7336 37.6517 40.2759C37.6436 40.5187 37.7064 40.5814 37.9532 40.5814C40.62 40.5713 43.2869 40.5814 45.9517 40.5672C46.2248 40.5672 46.2916 40.632 46.2855 40.9031C46.2653 41.6659 46.2794 41.6659 45.4984 41.6659C44.3127 41.6659 43.125 41.6659 41.9393 41.6659H41.9413ZM35.5029 41.1034V41.9492C35.5029 42.7525 35.5029 42.7464 36.3224 42.7343C36.5045 42.7323 36.5611 42.6857 36.5591 42.4996C36.549 41.7732 36.5551 41.0468 36.5551 40.3204C36.5551 39.4888 36.5551 39.4949 35.7336 39.505C35.5515 39.507 35.4928 39.5515 35.4968 39.7377C35.511 40.1929 35.5009 40.6482 35.5009 41.1034H35.5029Z" fill="#FFEFE1"/>
<path d="M17.1711 38.6206C18.8383 39.4542 20.4732 40.2697 22.1567 41.1114C20.4692 41.9551 18.8343 42.7726 17.1711 43.6042V38.6206ZM18.2657 41.8297C18.7432 41.5909 19.1965 41.3663 19.7044 41.1114C19.1965 40.8585 18.7412 40.6318 18.2657 40.3951V41.8277V41.8297Z" fill="#FFEFE1"/>
<path d="M23.0875 41.1115C23.0875 40.296 23.0936 39.4806 23.0834 38.6652C23.0814 38.4689 23.1239 38.3941 23.3323 38.4123C23.6014 38.4366 23.9555 38.3293 24.1214 38.4649C24.3015 38.6085 24.1761 38.9748 24.1761 39.2439C24.1821 40.6683 24.174 42.0908 24.1842 43.5152C24.1842 43.756 24.1255 43.8309 23.8766 43.8268C23.0855 43.8167 23.0855 43.8268 23.0855 43.0337C23.0855 42.3923 23.0855 41.7508 23.0855 41.1094L23.0875 41.1115Z" fill="#FFEFE1"/>
<path d="M25.2464 41.1115C25.2464 40.2961 25.2525 39.4807 25.2424 38.6653C25.2403 38.465 25.2889 38.4124 25.4933 38.4124C26.3431 38.4103 26.3431 38.4022 26.3431 39.246C26.3431 40.6704 26.337 42.0949 26.3492 43.5194C26.3492 43.7642 26.2864 43.833 26.0396 43.8289C25.2484 43.8209 25.2484 43.8289 25.2484 43.0358C25.2484 42.3944 25.2484 41.753 25.2484 41.1115H25.2464Z" fill="#FFEFE1"/>
<path d="M31.7172 35.1912C30.0196 35.1912 28.3219 35.1851 26.6243 35.1972C26.3694 35.1972 26.2884 35.1365 26.3006 34.8755C26.335 33.9954 26.2439 33.1132 26.3451 32.237C26.4888 31.0088 27.1969 30.2359 28.3705 29.8798C28.8784 29.726 29.3842 29.5722 29.8961 29.4387C30.1329 29.376 30.145 29.3011 29.971 29.1494C29.2709 28.5464 28.9856 27.7714 29.0119 26.8629C29.0301 26.2903 28.9775 25.7157 29.1657 25.1552C29.542 24.0342 30.574 23.3281 31.8507 23.3423C32.8745 23.3544 33.9409 24.1658 34.2525 25.1896C34.4973 25.9949 34.4669 26.8245 34.3536 27.6419C34.2707 28.2368 33.9449 28.7346 33.4856 29.1271C33.2812 29.3011 33.2914 29.378 33.5665 29.4468C34.0683 29.5743 34.5641 29.7321 35.0618 29.8798C36.3467 30.2622 37.1075 31.2557 37.1257 32.5931C37.1358 33.3641 37.1196 34.137 37.1338 34.9099C37.1378 35.1406 37.069 35.2013 36.8424 35.1993C35.1347 35.1912 33.4249 35.1952 31.7172 35.1952V35.1912ZM31.7131 34.1046C33.0607 34.1046 34.4103 34.1006 35.7579 34.1087C35.9663 34.1087 36.0411 34.0641 36.031 33.8416C36.0128 33.4409 36.027 33.0383 36.025 32.6356C36.0229 31.7474 35.5818 31.1626 34.73 30.9198C33.9813 30.7053 33.2367 30.4787 32.4861 30.2824C32.2837 30.2298 32.2311 30.1428 32.2392 29.9506C32.2534 29.6026 32.2513 29.2546 32.2392 28.9086C32.2331 28.7265 32.2776 28.6132 32.4496 28.5221C32.8786 28.2894 33.1902 27.9373 33.2772 27.4538C33.3763 26.9074 33.3662 26.351 33.2853 25.7986C33.172 25.0196 32.4759 24.4187 31.7111 24.4227C30.9038 24.4268 30.2421 25.0217 30.1349 25.8229C30.0803 26.2357 30.0985 26.6485 30.1086 27.0592C30.1207 27.5286 30.234 28.0163 30.6448 28.255C31.1668 28.5585 31.2599 28.9632 31.1931 29.4873C31.1729 29.6471 31.1769 29.815 31.1931 29.9749C31.2134 30.1671 31.1304 30.2319 30.9523 30.2784C30.1915 30.4828 29.4348 30.7074 28.676 30.9239C27.9861 31.1201 27.5308 31.5592 27.4377 32.2735C27.373 32.7753 27.4236 33.2932 27.3993 33.8031C27.3871 34.0419 27.4458 34.1147 27.6987 34.1127C29.0362 34.0985 30.3736 34.1066 31.7111 34.1066L31.7131 34.1046Z" fill="#FFEFE1"/>
</svg>
