<svg width="198" height="94" viewBox="0 0 198 94" fill="none" xmlns="http://www.w3.org/2000/svg">
<g clip-path="url(#clip0_833_2)">
<path d="M2.60664 0C1.16774 0 0 1.1667 0 2.60431C0 4.04193 1.16774 5.20863 2.60664 5.20863C4.04555 5.20863 5.21329 4.04193 5.21329 2.60431C5.21329 1.1667 4.04117 0 2.60664 0Z" fill="#E4E4E4"/>
<path d="M17.4374 0C16.0029 0 14.8308 1.1667 14.8308 2.60431C14.8308 4.04193 15.9985 5.20863 17.4374 5.20863C18.8763 5.20863 20.044 4.04193 20.044 2.60431C20.044 1.1667 18.8763 0 17.4374 0Z" fill="#E4E4E4"/>
<path d="M32.2638 0C30.8293 0 29.6571 1.1667 29.6571 2.60431C29.6571 4.04193 30.8249 5.20863 32.2638 5.20863C33.7027 5.20863 34.8704 4.04193 34.8704 2.60431C34.8704 1.1667 33.7027 0 32.2638 0Z" fill="#E4E4E4"/>
<path d="M47.0945 0C45.66 0 44.4879 1.1667 44.4879 2.60431C44.4879 4.04193 45.6556 5.20863 47.0945 5.20863C48.5334 5.20863 49.7012 4.04193 49.7012 2.60431C49.7012 1.1667 48.5334 0 47.0945 0Z" fill="#E4E4E4"/>
<path d="M61.9253 0C60.4908 0 59.3187 1.1667 59.3187 2.60431C59.3187 4.04193 60.4864 5.20863 61.9253 5.20863C63.3642 5.20863 64.5319 4.04193 64.5319 2.60431C64.5319 1.1667 63.3642 0 61.9253 0Z" fill="#E4E4E4"/>
<path d="M76.7561 0C75.3215 0 74.1494 1.1667 74.1494 2.60431C74.1494 4.04193 75.3171 5.20863 76.7561 5.20863C78.195 5.20863 79.3627 4.04193 79.3627 2.60431C79.3627 1.1667 78.195 0 76.7561 0Z" fill="#E4E4E4"/>
<path d="M91.5868 0C90.1523 0 88.9802 1.1667 88.9802 2.60431C88.9802 4.04193 90.1479 5.20863 91.5868 5.20863C93.0257 5.20863 94.1935 4.04193 94.1935 2.60431C94.1935 1.1667 93.0257 0 91.5868 0Z" fill="#E4E4E4"/>
<path d="M2.60664 14.8132C1.17212 14.8132 0 15.9799 0 17.4175C0 18.8552 1.16774 20.0219 2.60664 20.0219C4.04555 20.0219 5.21329 18.8552 5.21329 17.4175C5.21329 15.9799 4.04555 14.8132 2.60664 14.8132Z" fill="#E4E4E4"/>
<path d="M17.4374 14.8132C16.0029 14.8132 14.8308 15.9799 14.8308 17.4175C14.8308 18.8552 15.9985 20.0219 17.4374 20.0219C18.8763 20.0219 20.044 18.8552 20.044 17.4175C20.044 15.9799 18.8763 14.8132 17.4374 14.8132Z" fill="#E4E4E4"/>
<path d="M32.2638 14.8132C30.8293 14.8132 29.6571 15.9799 29.6571 17.4175C29.6571 18.8552 30.8249 20.0219 32.2638 20.0219C33.7027 20.0219 34.8704 18.8552 34.8704 17.4175C34.8704 15.9799 33.7027 14.8132 32.2638 14.8132Z" fill="#E4E4E4"/>
<path d="M47.0945 14.8132C45.66 14.8132 44.4879 15.9799 44.4879 17.4175C44.4879 18.8552 45.6556 20.0219 47.0945 20.0219C48.5334 20.0219 49.7012 18.8552 49.7012 17.4175C49.7012 15.9799 48.5334 14.8132 47.0945 14.8132Z" fill="#E4E4E4"/>
<path d="M61.9253 14.8132C60.4908 14.8132 59.3187 15.9799 59.3187 17.4175C59.3187 18.8552 60.4864 20.0219 61.9253 20.0219C63.3642 20.0219 64.5319 18.8552 64.5319 17.4175C64.5319 15.9799 63.3642 14.8132 61.9253 14.8132Z" fill="#E4E4E4"/>
<path d="M76.7561 14.8132C75.3215 14.8132 74.1494 15.9799 74.1494 17.4175C74.1494 18.8552 75.3171 20.0219 76.7561 20.0219C78.195 20.0219 79.3627 18.8552 79.3627 17.4175C79.3627 15.9799 78.195 14.8132 76.7561 14.8132Z" fill="#E4E4E4"/>
<path d="M91.5868 14.8132C90.1523 14.8132 88.9802 15.9799 88.9802 17.4175C88.9802 18.8552 90.1479 20.0219 91.5868 20.0219C93.0257 20.0219 94.1935 18.8552 94.1935 17.4175C94.1935 15.9799 93.0257 14.8132 91.5868 14.8132Z" fill="#E4E4E4"/>
<path d="M2.60664 29.5344C1.17212 29.5344 0 30.7011 0 32.1387C0 33.5764 1.16774 34.7431 2.60664 34.7431C4.04555 34.7431 5.21329 33.5764 5.21329 32.1387C5.21329 30.7011 4.04555 29.5344 2.60664 29.5344Z" fill="#E4E4E4"/>
<path d="M17.4374 29.5344C16.0029 29.5344 14.8308 30.7011 14.8308 32.1387C14.8308 33.5764 15.9985 34.7431 17.4374 34.7431C18.8763 34.7431 20.044 33.5764 20.044 32.1387C20.044 30.7011 18.8763 29.5344 17.4374 29.5344Z" fill="#E4E4E4"/>
<path d="M32.2638 29.5344C30.8293 29.5344 29.6571 30.7011 29.6571 32.1387C29.6571 33.5764 30.8249 34.7431 32.2638 34.7431C33.7027 34.7431 34.8704 33.5764 34.8704 32.1387C34.8704 30.7011 33.7027 29.5344 32.2638 29.5344Z" fill="#E4E4E4"/>
<path d="M47.0945 29.5344C45.66 29.5344 44.4879 30.7011 44.4879 32.1387C44.4879 33.5764 45.6556 34.7431 47.0945 34.7431C48.5334 34.7431 49.7012 33.5764 49.7012 32.1387C49.7012 30.7011 48.5334 29.5344 47.0945 29.5344Z" fill="#E4E4E4"/>
<path d="M61.9253 29.5344C60.4908 29.5344 59.3187 30.7011 59.3187 32.1387C59.3187 33.5764 60.4864 34.7431 61.9253 34.7431C63.3642 34.7431 64.5319 33.5764 64.5319 32.1387C64.5319 30.7011 63.3642 29.5344 61.9253 29.5344Z" fill="#E4E4E4"/>
<path d="M76.7561 29.5344C75.3215 29.5344 74.1494 30.7011 74.1494 32.1387C74.1494 33.5764 75.3171 34.7431 76.7561 34.7431C78.195 34.7431 79.3627 33.5764 79.3627 32.1387C79.3627 30.7011 78.195 29.5344 76.7561 29.5344Z" fill="#E4E4E4"/>
<path d="M91.5868 29.5344C90.1523 29.5344 88.9802 30.7011 88.9802 32.1387C88.9802 33.5764 90.1479 34.7431 91.5868 34.7431C93.0257 34.7431 94.1935 33.5764 94.1935 32.1387C94.1935 30.7011 93.0257 29.5344 91.5868 29.5344Z" fill="#E4E4E4"/>
<path d="M2.60664 44.3521C1.17212 44.3521 0 45.5187 0 46.9564C0 48.394 1.16774 49.5607 2.60664 49.5607C4.04555 49.5607 5.21329 48.394 5.21329 46.9564C5.21329 45.5187 4.04555 44.3521 2.60664 44.3521Z" fill="#E4E4E4"/>
<path d="M17.4374 44.3521C16.0029 44.3521 14.8308 45.5187 14.8308 46.9564C14.8308 48.394 15.9985 49.5607 17.4374 49.5607C18.8763 49.5607 20.044 48.394 20.044 46.9564C20.044 45.5187 18.8763 44.3521 17.4374 44.3521Z" fill="#E4E4E4"/>
<path d="M32.2638 44.3521C30.8293 44.3521 29.6571 45.5187 29.6571 46.9564C29.6571 48.394 30.8249 49.5607 32.2638 49.5607C33.7027 49.5607 34.8704 48.394 34.8704 46.9564C34.8704 45.5187 33.7027 44.3521 32.2638 44.3521Z" fill="#E4E4E4"/>
<path d="M47.0945 44.3521C45.66 44.3521 44.4879 45.5187 44.4879 46.9564C44.4879 48.394 45.6556 49.5607 47.0945 49.5607C48.5334 49.5607 49.7012 48.394 49.7012 46.9564C49.7012 45.5187 48.5334 44.3521 47.0945 44.3521Z" fill="#E4E4E4"/>
<path d="M61.9253 44.3521C60.4908 44.3521 59.3187 45.5187 59.3187 46.9564C59.3187 48.394 60.4864 49.5607 61.9253 49.5607C63.3642 49.5607 64.5319 48.394 64.5319 46.9564C64.5319 45.5187 63.3642 44.3521 61.9253 44.3521Z" fill="#E4E4E4"/>
<path d="M76.7561 44.3521C75.3215 44.3521 74.1494 45.5187 74.1494 46.9564C74.1494 48.394 75.3171 49.5607 76.7561 49.5607C78.195 49.5607 79.3627 48.394 79.3627 46.9564C79.3627 45.5187 78.195 44.3521 76.7561 44.3521Z" fill="#E4E4E4"/>
<path d="M91.5868 44.3521C90.1523 44.3521 88.9802 45.5187 88.9802 46.9564C88.9802 48.394 90.1479 49.5607 91.5868 49.5607C93.0257 49.5607 94.1935 48.394 94.1935 46.9564C94.1935 45.5187 93.0257 44.3521 91.5868 44.3521Z" fill="#E4E4E4"/>
<path d="M2.60664 59.165C1.17212 59.165 0 60.3317 0 61.7694C0 63.207 1.16774 64.3737 2.60664 64.3737C4.04555 64.3737 5.21329 63.207 5.21329 61.7694C5.21329 60.3317 4.04555 59.165 2.60664 59.165Z" fill="#E4E4E4"/>
<path d="M17.4374 59.165C16.0029 59.165 14.8308 60.3317 14.8308 61.7694C14.8308 63.207 15.9985 64.3737 17.4374 64.3737C18.8763 64.3737 20.044 63.207 20.044 61.7694C20.044 60.3317 18.8763 59.165 17.4374 59.165Z" fill="#E4E4E4"/>
<path d="M32.2638 59.165C30.8293 59.165 29.6571 60.3317 29.6571 61.7694C29.6571 63.207 30.8249 64.3737 32.2638 64.3737C33.7027 64.3737 34.8704 63.207 34.8704 61.7694C34.8704 60.3317 33.7027 59.165 32.2638 59.165Z" fill="#E4E4E4"/>
<path d="M47.0945 59.165C45.66 59.165 44.4879 60.3317 44.4879 61.7694C44.4879 63.207 45.6556 64.3737 47.0945 64.3737C48.5334 64.3737 49.7012 63.207 49.7012 61.7694C49.7012 60.3317 48.5334 59.165 47.0945 59.165Z" fill="#E4E4E4"/>
<path d="M61.9253 59.165C60.4908 59.165 59.3187 60.3317 59.3187 61.7694C59.3187 63.207 60.4864 64.3737 61.9253 64.3737C63.3642 64.3737 64.5319 63.207 64.5319 61.7694C64.5319 60.3317 63.3642 59.165 61.9253 59.165Z" fill="#E4E4E4"/>
<path d="M76.7561 59.165C75.3215 59.165 74.1494 60.3317 74.1494 61.7694C74.1494 63.207 75.3171 64.3737 76.7561 64.3737C78.195 64.3737 79.3627 63.207 79.3627 61.7694C79.3627 60.3317 78.195 59.165 76.7561 59.165Z" fill="#E4E4E4"/>
<path d="M91.5868 59.165C90.1523 59.165 88.9802 60.3317 88.9802 61.7694C88.9802 63.207 90.1479 64.3737 91.5868 64.3737C93.0257 64.3737 94.1935 63.207 94.1935 61.7694C94.1935 60.3317 93.0257 59.165 91.5868 59.165Z" fill="#E4E4E4"/>
<path d="M2.60664 73.8865C1.17212 73.8865 0 75.0532 0 76.4908C0 77.9284 1.16774 79.0951 2.60664 79.0951C4.04555 79.0951 5.21329 77.9284 5.21329 76.4908C5.21329 75.0532 4.04555 73.8865 2.60664 73.8865Z" fill="#E4E4E4"/>
<path d="M17.4374 73.8865C16.0029 73.8865 14.8308 75.0532 14.8308 76.4908C14.8308 77.9284 15.9985 79.0951 17.4374 79.0951C18.8763 79.0951 20.044 77.9284 20.044 76.4908C20.044 75.0532 18.8763 73.8865 17.4374 73.8865Z" fill="#E4E4E4"/>
<path d="M32.2638 73.8865C30.8293 73.8865 29.6571 75.0532 29.6571 76.4908C29.6571 77.9284 30.8249 79.0951 32.2638 79.0951C33.7027 79.0951 34.8704 77.9284 34.8704 76.4908C34.8704 75.0532 33.7027 73.8865 32.2638 73.8865Z" fill="#E4E4E4"/>
<path d="M47.0945 73.8865C45.66 73.8865 44.4879 75.0532 44.4879 76.4908C44.4879 77.9284 45.6556 79.0951 47.0945 79.0951C48.5334 79.0951 49.7012 77.9284 49.7012 76.4908C49.7012 75.0532 48.5334 73.8865 47.0945 73.8865Z" fill="#E4E4E4"/>
<path d="M61.9253 73.8865C60.4908 73.8865 59.3187 75.0532 59.3187 76.4908C59.3187 77.9284 60.4864 79.0951 61.9253 79.0951C63.3642 79.0951 64.5319 77.9284 64.5319 76.4908C64.5319 75.0532 63.3642 73.8865 61.9253 73.8865Z" fill="#E4E4E4"/>
<path d="M76.7561 73.8865C75.3215 73.8865 74.1494 75.0532 74.1494 76.4908C74.1494 77.9284 75.3171 79.0951 76.7561 79.0951C78.195 79.0951 79.3627 77.9284 79.3627 76.4908C79.3627 75.0532 78.195 73.8865 76.7561 73.8865Z" fill="#E4E4E4"/>
<path d="M91.5868 73.8865C90.1523 73.8865 88.9802 75.0532 88.9802 76.4908C88.9802 77.9284 90.1479 79.0951 91.5868 79.0951C93.0257 79.0951 94.1935 77.9284 94.1935 76.4908C94.1935 75.0532 93.0257 73.8865 91.5868 73.8865Z" fill="#E4E4E4"/>
<path d="M2.60664 88.7957C1.17212 88.7957 0 89.9623 0 91.4C0 92.8376 1.16774 94.0043 2.60664 94.0043C4.04555 94.0043 5.21329 92.8376 5.21329 91.4C5.21329 89.9623 4.04555 88.7957 2.60664 88.7957Z" fill="#E4E4E4"/>
<path d="M17.4374 88.7957C16.0029 88.7957 14.8308 89.9623 14.8308 91.4C14.8308 92.8376 15.9985 94.0043 17.4374 94.0043C18.8763 94.0043 20.044 92.8376 20.044 91.4C20.044 89.9623 18.8763 88.7957 17.4374 88.7957Z" fill="#E4E4E4"/>
<path d="M32.2638 88.7957C30.8293 88.7957 29.6571 89.9623 29.6571 91.4C29.6571 92.8376 30.8249 94.0043 32.2638 94.0043C33.7027 94.0043 34.8704 92.8376 34.8704 91.4C34.8704 89.9623 33.7027 88.7957 32.2638 88.7957Z" fill="#E4E4E4"/>
<path d="M47.0945 88.7957C45.66 88.7957 44.4879 89.9623 44.4879 91.4C44.4879 92.8376 45.6556 94.0043 47.0945 94.0043C48.5334 94.0043 49.7012 92.8376 49.7012 91.4C49.7012 89.9623 48.5334 88.7957 47.0945 88.7957Z" fill="#E4E4E4"/>
<path d="M61.9253 88.7957C60.4908 88.7957 59.3187 89.9623 59.3187 91.4C59.3187 92.8376 60.4864 94.0043 61.9253 94.0043C63.3642 94.0043 64.5319 92.8376 64.5319 91.4C64.5319 89.9623 63.3642 88.7957 61.9253 88.7957Z" fill="#E4E4E4"/>
<path d="M76.7561 88.7957C75.3215 88.7957 74.1494 89.9623 74.1494 91.4C74.1494 92.8376 75.3171 94.0043 76.7561 94.0043C78.195 94.0043 79.3627 92.8376 79.3627 91.4C79.3627 89.9623 78.195 88.7957 76.7561 88.7957Z" fill="#E4E4E4"/>
<path d="M91.5868 88.7957C90.1523 88.7957 88.9802 89.9623 88.9802 91.4C88.9802 92.8376 90.1479 94.0043 91.5868 94.0043C93.0257 94.0043 94.1935 92.8376 94.1935 91.4C94.1935 89.9623 93.0257 88.7957 91.5868 88.7957Z" fill="#E4E4E4"/>
<path d="M106.413 0C104.979 0 103.807 1.1667 103.807 2.60431C103.807 4.04193 104.974 5.20863 106.413 5.20863C107.852 5.20863 109.02 4.04193 109.02 2.60431C109.02 1.1667 107.852 0 106.413 0Z" fill="#E4E4E4"/>
<path d="M121.24 0C119.805 0 118.633 1.1667 118.633 2.60431C118.633 4.04193 119.801 5.20863 121.24 5.20863C122.678 5.20863 123.846 4.04193 123.846 2.60431C123.846 1.1667 122.678 0 121.24 0Z" fill="#E4E4E4"/>
<path d="M136.07 0C134.636 0 133.464 1.1667 133.464 2.60431C133.464 4.04193 134.631 5.20863 136.07 5.20863C137.509 5.20863 138.677 4.04193 138.677 2.60431C138.677 1.1667 137.509 0 136.07 0Z" fill="#E4E4E4"/>
<path d="M150.901 0C149.467 0 148.294 1.1667 148.294 2.60431C148.294 4.04193 149.462 5.20863 150.901 5.20863C152.34 5.20863 153.508 4.04193 153.508 2.60431C153.508 1.1667 152.34 0 150.901 0Z" fill="#E4E4E4"/>
<path d="M165.732 0C164.297 0 163.125 1.1667 163.125 2.60431C163.125 4.04193 164.293 5.20863 165.732 5.20863C167.171 5.20863 168.338 4.04193 168.338 2.60431C168.338 1.1667 167.171 0 165.732 0Z" fill="#E4E4E4"/>
<path d="M180.563 0C179.128 0 177.956 1.1667 177.956 2.60431C177.956 4.04193 179.124 5.20863 180.563 5.20863C182.002 5.20863 183.169 4.04193 183.169 2.60431C183.169 1.1667 182.002 0 180.563 0Z" fill="#E4E4E4"/>
<path d="M195.393 5.20423C196.828 5.20423 198 4.03754 198 2.59992C198 1.1623 196.832 -0.00439453 195.393 -0.00439453C193.954 -0.00439453 192.787 1.1623 192.787 2.59992C192.787 4.03754 193.954 5.20423 195.393 5.20423Z" fill="#E4E4E4"/>
<path d="M106.413 14.8132C104.979 14.8132 103.807 15.9799 103.807 17.4175C103.807 18.8552 104.974 20.0219 106.413 20.0219C107.852 20.0219 109.02 18.8552 109.02 17.4175C109.02 15.9799 107.852 14.8132 106.413 14.8132Z" fill="#E4E4E4"/>
<path d="M121.24 14.8132C119.805 14.8132 118.633 15.9799 118.633 17.4175C118.633 18.8552 119.801 20.0219 121.24 20.0219C122.678 20.0219 123.846 18.8552 123.846 17.4175C123.846 15.9799 122.678 14.8132 121.24 14.8132Z" fill="#E4E4E4"/>
<path d="M136.07 14.8132C134.636 14.8132 133.464 15.9799 133.464 17.4175C133.464 18.8552 134.631 20.0219 136.07 20.0219C137.509 20.0219 138.677 18.8552 138.677 17.4175C138.677 15.9799 137.509 14.8132 136.07 14.8132Z" fill="#E4E4E4"/>
<path d="M150.901 14.8132C149.467 14.8132 148.294 15.9799 148.294 17.4175C148.294 18.8552 149.462 20.0219 150.901 20.0219C152.34 20.0219 153.508 18.8552 153.508 17.4175C153.508 15.9799 152.34 14.8132 150.901 14.8132Z" fill="#E4E4E4"/>
<path d="M165.732 14.8132C164.297 14.8132 163.125 15.9799 163.125 17.4175C163.125 18.8552 164.293 20.0219 165.732 20.0219C167.171 20.0219 168.338 18.8552 168.338 17.4175C168.338 15.9799 167.171 14.8132 165.732 14.8132Z" fill="#E4E4E4"/>
<path d="M180.563 14.8132C179.128 14.8132 177.956 15.9799 177.956 17.4175C177.956 18.8552 179.124 20.0219 180.563 20.0219C182.002 20.0219 183.169 18.8552 183.169 17.4175C183.169 15.9799 182.002 14.8132 180.563 14.8132Z" fill="#E4E4E4"/>
<path d="M195.393 14.8132C193.959 14.8132 192.787 15.9799 192.787 17.4175C192.787 18.8552 193.954 20.0219 195.393 20.0219C196.832 20.0219 198 18.8552 198 17.4175C198 15.9799 196.832 14.8132 195.393 14.8132Z" fill="#E4E4E4"/>
<path d="M106.413 29.5344C104.979 29.5344 103.807 30.7011 103.807 32.1387C103.807 33.5764 104.974 34.7431 106.413 34.7431C107.852 34.7431 109.02 33.5764 109.02 32.1387C109.02 30.7011 107.852 29.5344 106.413 29.5344Z" fill="#E4E4E4"/>
<path d="M121.24 29.5344C119.805 29.5344 118.633 30.7011 118.633 32.1387C118.633 33.5764 119.801 34.7431 121.24 34.7431C122.678 34.7431 123.846 33.5764 123.846 32.1387C123.846 30.7011 122.678 29.5344 121.24 29.5344Z" fill="#E4E4E4"/>
<path d="M136.07 29.5344C134.636 29.5344 133.464 30.7011 133.464 32.1387C133.464 33.5764 134.631 34.7431 136.07 34.7431C137.509 34.7431 138.677 33.5764 138.677 32.1387C138.677 30.7011 137.509 29.5344 136.07 29.5344Z" fill="#E4E4E4"/>
<path d="M150.901 29.5344C149.467 29.5344 148.294 30.7011 148.294 32.1387C148.294 33.5764 149.462 34.7431 150.901 34.7431C152.34 34.7431 153.508 33.5764 153.508 32.1387C153.508 30.7011 152.34 29.5344 150.901 29.5344Z" fill="#E4E4E4"/>
<path d="M165.732 29.5344C164.297 29.5344 163.125 30.7011 163.125 32.1387C163.125 33.5764 164.293 34.7431 165.732 34.7431C167.171 34.7431 168.338 33.5764 168.338 32.1387C168.338 30.7011 167.171 29.5344 165.732 29.5344Z" fill="#E4E4E4"/>
<path d="M180.563 29.5344C179.128 29.5344 177.956 30.7011 177.956 32.1387C177.956 33.5764 179.124 34.7431 180.563 34.7431C182.002 34.7431 183.169 33.5764 183.169 32.1387C183.169 30.7011 182.002 29.5344 180.563 29.5344Z" fill="#E4E4E4"/>
<path d="M195.393 29.5344C193.959 29.5344 192.787 30.7011 192.787 32.1387C192.787 33.5764 193.954 34.7431 195.393 34.7431C196.832 34.7431 198 33.5764 198 32.1387C198 30.7011 196.832 29.5344 195.393 29.5344Z" fill="#E4E4E4"/>
<path d="M106.413 44.3521C104.979 44.3521 103.807 45.5187 103.807 46.9564C103.807 48.394 104.974 49.5607 106.413 49.5607C107.852 49.5607 109.02 48.394 109.02 46.9564C109.02 45.5187 107.852 44.3521 106.413 44.3521Z" fill="#E4E4E4"/>
<path d="M121.24 44.3521C119.805 44.3521 118.633 45.5187 118.633 46.9564C118.633 48.394 119.801 49.5607 121.24 49.5607C122.678 49.5607 123.846 48.394 123.846 46.9564C123.846 45.5187 122.678 44.3521 121.24 44.3521Z" fill="#E4E4E4"/>
<path d="M136.07 44.3521C134.636 44.3521 133.464 45.5187 133.464 46.9564C133.464 48.394 134.631 49.5607 136.07 49.5607C137.509 49.5607 138.677 48.394 138.677 46.9564C138.677 45.5187 137.509 44.3521 136.07 44.3521Z" fill="#E4E4E4"/>
<path d="M150.901 44.3521C149.467 44.3521 148.294 45.5187 148.294 46.9564C148.294 48.394 149.462 49.5607 150.901 49.5607C152.34 49.5607 153.508 48.394 153.508 46.9564C153.508 45.5187 152.34 44.3521 150.901 44.3521Z" fill="#E4E4E4"/>
<path d="M165.732 44.3521C164.297 44.3521 163.125 45.5187 163.125 46.9564C163.125 48.394 164.293 49.5607 165.732 49.5607C167.171 49.5607 168.338 48.394 168.338 46.9564C168.338 45.5187 167.171 44.3521 165.732 44.3521Z" fill="#E4E4E4"/>
<path d="M180.563 44.3521C179.128 44.3521 177.956 45.5187 177.956 46.9564C177.956 48.394 179.124 49.5607 180.563 49.5607C182.002 49.5607 183.169 48.394 183.169 46.9564C183.169 45.5187 182.002 44.3521 180.563 44.3521Z" fill="#E4E4E4"/>
<path d="M195.393 44.3521C193.959 44.3521 192.787 45.5187 192.787 46.9564C192.787 48.394 193.954 49.5607 195.393 49.5607C196.832 49.5607 198 48.394 198 46.9564C198 45.5187 196.832 44.3521 195.393 44.3521Z" fill="#E4E4E4"/>
<path d="M106.413 59.165C104.979 59.165 103.807 60.3317 103.807 61.7694C103.807 63.207 104.974 64.3737 106.413 64.3737C107.852 64.3737 109.02 63.207 109.02 61.7694C109.02 60.3317 107.852 59.165 106.413 59.165Z" fill="#E4E4E4"/>
<path d="M121.24 59.165C119.805 59.165 118.633 60.3317 118.633 61.7694C118.633 63.207 119.801 64.3737 121.24 64.3737C122.678 64.3737 123.846 63.207 123.846 61.7694C123.846 60.3317 122.678 59.165 121.24 59.165Z" fill="#E4E4E4"/>
<path d="M136.07 59.165C134.636 59.165 133.464 60.3317 133.464 61.7694C133.464 63.207 134.631 64.3737 136.07 64.3737C137.509 64.3737 138.677 63.207 138.677 61.7694C138.677 60.3317 137.509 59.165 136.07 59.165Z" fill="#E4E4E4"/>
<path d="M150.901 59.165C149.467 59.165 148.294 60.3317 148.294 61.7694C148.294 63.207 149.462 64.3737 150.901 64.3737C152.34 64.3737 153.508 63.207 153.508 61.7694C153.508 60.3317 152.34 59.165 150.901 59.165Z" fill="#E4E4E4"/>
<path d="M165.732 59.165C164.297 59.165 163.125 60.3317 163.125 61.7694C163.125 63.207 164.293 64.3737 165.732 64.3737C167.171 64.3737 168.338 63.207 168.338 61.7694C168.338 60.3317 167.171 59.165 165.732 59.165Z" fill="#E4E4E4"/>
<path d="M180.563 59.165C179.128 59.165 177.956 60.3317 177.956 61.7694C177.956 63.207 179.124 64.3737 180.563 64.3737C182.002 64.3737 183.169 63.207 183.169 61.7694C183.169 60.3317 182.002 59.165 180.563 59.165Z" fill="#E4E4E4"/>
<path d="M195.393 59.165C193.959 59.165 192.787 60.3317 192.787 61.7694C192.787 63.207 193.954 64.3737 195.393 64.3737C196.832 64.3737 198 63.207 198 61.7694C198 60.3317 196.832 59.165 195.393 59.165Z" fill="#E4E4E4"/>
<path d="M106.413 73.8865C104.979 73.8865 103.807 75.0532 103.807 76.4908C103.807 77.9284 104.974 79.0951 106.413 79.0951C107.852 79.0951 109.02 77.9284 109.02 76.4908C109.02 75.0532 107.852 73.8865 106.413 73.8865Z" fill="#E4E4E4"/>
<path d="M121.24 73.8865C119.805 73.8865 118.633 75.0532 118.633 76.4908C118.633 77.9284 119.801 79.0951 121.24 79.0951C122.678 79.0951 123.846 77.9284 123.846 76.4908C123.846 75.0532 122.678 73.8865 121.24 73.8865Z" fill="#E4E4E4"/>
<path d="M136.07 73.8865C134.636 73.8865 133.464 75.0532 133.464 76.4908C133.464 77.9284 134.631 79.0951 136.07 79.0951C137.509 79.0951 138.677 77.9284 138.677 76.4908C138.677 75.0532 137.509 73.8865 136.07 73.8865Z" fill="#E4E4E4"/>
<path d="M150.901 73.8865C149.467 73.8865 148.294 75.0532 148.294 76.4908C148.294 77.9284 149.462 79.0951 150.901 79.0951C152.34 79.0951 153.508 77.9284 153.508 76.4908C153.508 75.0532 152.34 73.8865 150.901 73.8865Z" fill="#E4E4E4"/>
<path d="M165.732 73.8865C164.297 73.8865 163.125 75.0532 163.125 76.4908C163.125 77.9284 164.293 79.0951 165.732 79.0951C167.171 79.0951 168.338 77.9284 168.338 76.4908C168.338 75.0532 167.171 73.8865 165.732 73.8865Z" fill="#E4E4E4"/>
<path d="M180.563 73.8865C179.128 73.8865 177.956 75.0532 177.956 76.4908C177.956 77.9284 179.124 79.0951 180.563 79.0951C182.002 79.0951 183.169 77.9284 183.169 76.4908C183.169 75.0532 182.002 73.8865 180.563 73.8865Z" fill="#E4E4E4"/>
<path d="M195.393 73.8865C193.959 73.8865 192.787 75.0532 192.787 76.4908C192.787 77.9284 193.954 79.0951 195.393 79.0951C196.832 79.0951 198 77.9284 198 76.4908C198 75.0532 196.832 73.8865 195.393 73.8865Z" fill="#E4E4E4"/>
<path d="M106.413 88.7957C104.979 88.7957 103.807 89.9623 103.807 91.4C103.807 92.8376 104.974 94.0043 106.413 94.0043C107.852 94.0043 109.02 92.8376 109.02 91.4C109.02 89.9623 107.852 88.7957 106.413 88.7957Z" fill="#E4E4E4"/>
<path d="M121.24 88.7957C119.805 88.7957 118.633 89.9623 118.633 91.4C118.633 92.8376 119.801 94.0043 121.24 94.0043C122.678 94.0043 123.846 92.8376 123.846 91.4C123.846 89.9623 122.678 88.7957 121.24 88.7957Z" fill="#E4E4E4"/>
<path d="M136.07 88.7957C134.636 88.7957 133.464 89.9623 133.464 91.4C133.464 92.8376 134.631 94.0043 136.07 94.0043C137.509 94.0043 138.677 92.8376 138.677 91.4C138.677 89.9623 137.509 88.7957 136.07 88.7957Z" fill="#E4E4E4"/>
<path d="M150.901 88.7957C149.467 88.7957 148.294 89.9623 148.294 91.4C148.294 92.8376 149.462 94.0043 150.901 94.0043C152.34 94.0043 153.508 92.8376 153.508 91.4C153.508 89.9623 152.34 88.7957 150.901 88.7957Z" fill="#E4E4E4"/>
<path d="M165.732 88.7957C164.297 88.7957 163.125 89.9623 163.125 91.4C163.125 92.8376 164.293 94.0043 165.732 94.0043C167.171 94.0043 168.338 92.8376 168.338 91.4C168.338 89.9623 167.171 88.7957 165.732 88.7957Z" fill="#E4E4E4"/>
<path d="M180.563 88.7957C179.128 88.7957 177.956 89.9623 177.956 91.4C177.956 92.8376 179.124 94.0043 180.563 94.0043C182.002 94.0043 183.169 92.8376 183.169 91.4C183.169 89.9623 182.002 88.7957 180.563 88.7957Z" fill="#E4E4E4"/>
<path d="M195.393 88.7957C193.959 88.7957 192.787 89.9623 192.787 91.4C192.787 92.8376 193.954 94.0043 195.393 94.0043C196.832 94.0043 198 92.8376 198 91.4C198 89.9623 196.832 88.7957 195.393 88.7957Z" fill="#E4E4E4"/>
</g>
<defs>
<clipPath id="clip0_833_2">
<rect width="198" height="94" fill="white"/>
</clipPath>
</defs>
</svg>
