<svg width="98" height="98" viewBox="0 0 98 98" fill="none" xmlns="http://www.w3.org/2000/svg">
<circle cx="49" cy="49" r="49" fill="url(#paint0_linear_833_464)"/>
<circle cx="49.5" cy="48.5" r="44.5" fill="white"/>
<path d="M63.9467 46.9736L39.4367 34.7186C39.106 34.5654 38.7423 34.4973 38.3786 34.5206C38.0149 34.5438 37.6629 34.6577 37.3544 34.8518C37.046 35.0459 36.791 35.314 36.6127 35.6318C36.4343 35.9496 36.3383 36.307 36.3333 36.6713V61.1708C36.3302 61.5448 36.4237 61.9133 36.6047 62.2407C36.7856 62.5681 37.048 62.8432 37.3664 63.0396C37.6847 63.2359 38.0484 63.3468 38.4222 63.3615C38.7959 63.3762 39.1672 63.2943 39.5 63.1236L63.9467 50.8686C64.3088 50.6868 64.6132 50.4079 64.826 50.063C65.0387 49.7182 65.1514 49.321 65.1514 48.9158C65.1514 48.5106 65.0387 48.1134 64.826 47.7685C64.6132 47.4237 64.3088 47.1448 63.9467 46.963V46.9736Z" fill="#F58220"/>
<defs>
<linearGradient id="paint0_linear_833_464" x1="49" y1="-47" x2="49" y2="94.5" gradientUnits="userSpaceOnUse">
<stop stop-color="white"/>
<stop offset="1" stop-color="white" stop-opacity="0"/>
</linearGradient>
</defs>
</svg>
