<svg width="64" height="64" viewBox="0 0 64 64" fill="none" xmlns="http://www.w3.org/2000/svg">
<circle cx="32" cy="32" r="32" fill="#F58220"/>
<path d="M22.16 26.744C22.64 26.744 22.992 26.376 22.992 25.912C22.992 25.48 22.624 25.128 22.16 25.128C21.696 25.128 21.328 25.496 21.328 25.928C21.328 26.376 21.696 26.744 22.16 26.744ZM21.584 37H22.72V28.584H21.584V37ZM29.3689 37.08C30.7929 37.08 31.9929 36.504 32.6649 35.416L31.8169 34.84C31.2409 35.688 30.3449 36.072 29.3689 36.072C27.5289 36.072 26.1849 34.776 26.1849 32.792C26.1849 30.824 27.5289 29.512 29.3689 29.512C30.3449 29.512 31.2409 29.912 31.8169 30.76L32.6649 30.184C31.9929 29.08 30.7929 28.52 29.3689 28.52C26.8569 28.52 25.0329 30.28 25.0329 32.792C25.0329 35.304 26.8569 37.08 29.3689 37.08ZM38.1959 37.08C40.6599 37.08 42.4679 35.288 42.4679 32.792C42.4679 30.296 40.6599 28.52 38.1959 28.52C35.7319 28.52 33.9079 30.296 33.9079 32.792C33.9079 35.288 35.7319 37.08 38.1959 37.08ZM38.1959 36.072C36.4039 36.072 35.0599 34.76 35.0599 32.792C35.0599 30.824 36.4039 29.512 38.1959 29.512C39.9879 29.512 41.3159 30.824 41.3159 32.792C41.3159 34.76 39.9879 36.072 38.1959 36.072Z" fill="white"/>
</svg>
