<svg width="35" height="35" viewBox="0 0 35 35" fill="none" xmlns="http://www.w3.org/2000/svg">
<path d="M32.2998 14.082H23.5498C23.3994 14.082 23.2764 14.2051 23.2764 14.3555V15.9961C23.2764 16.1465 23.3994 16.2695 23.5498 16.2695H32.2998C32.4502 16.2695 32.5732 16.1465 32.5732 15.9961V14.3555C32.5732 14.2051 32.4502 14.082 32.2998 14.082ZM27.7197 18.7305H23.5498C23.3994 18.7305 23.2764 18.8535 23.2764 19.0039V20.6445C23.2764 20.7949 23.3994 20.918 23.5498 20.918H27.7197C27.8701 20.918 27.9932 20.7949 27.9932 20.6445V19.0039C27.9932 18.8535 27.8701 18.7305 27.7197 18.7305ZM16.314 11.0229H14.834C14.6221 11.0229 14.4512 11.1938 14.4512 11.4058V19.8823C14.4512 20.0054 14.5093 20.1182 14.6084 20.1899L19.6978 23.9019C19.8687 24.0249 20.1079 23.9907 20.231 23.8198L21.1094 22.6201V22.6167C21.2324 22.4458 21.1948 22.2065 21.0239 22.0835L16.6934 18.9526V11.4058C16.6968 11.1938 16.5225 11.0229 16.314 11.0229Z" fill="#F58220"/>
<path d="M27.5078 23.0338H25.5322C25.3408 23.0338 25.1597 23.1329 25.0571 23.2969C24.6231 23.984 24.1172 24.6197 23.5362 25.2008C22.5347 26.2022 21.3692 26.9883 20.0738 27.5352C18.7305 28.1026 17.3052 28.3897 15.8355 28.3897C14.3623 28.3897 12.937 28.1026 11.5972 27.5352C10.3018 26.9883 9.13625 26.2022 8.13479 25.2008C7.13332 24.1993 6.34719 23.0338 5.80032 21.7383C5.23293 20.3985 4.94582 18.9732 4.94582 17.5001C4.94582 16.0269 5.23293 14.605 5.80032 13.2618C6.34719 11.9664 7.13332 10.8008 8.13479 9.79938C9.13625 8.79792 10.3018 8.01179 11.5972 7.46491C12.937 6.89753 14.3657 6.61042 15.8355 6.61042C17.3086 6.61042 18.7339 6.89753 20.0738 7.46491C21.3692 8.01179 22.5347 8.79792 23.5362 9.79938C24.1172 10.3804 24.6231 11.0162 25.0571 11.7032C25.1597 11.8673 25.3408 11.9664 25.5322 11.9664H27.5078C27.7437 11.9664 27.8941 11.7203 27.7881 11.5118C25.5596 7.07868 21.041 4.19733 15.9961 4.13923C8.60989 4.04694 2.47463 10.0933 2.46096 17.4727C2.44729 24.8658 8.43899 30.8643 15.8321 30.8643C20.9419 30.8643 25.5357 27.9727 27.7881 23.4883C27.8941 23.2799 27.7403 23.0338 27.5078 23.0338Z" fill="#F58220"/>
</svg>
