<svg width="225" height="68" viewBox="0 0 225 68" fill="none" xmlns="http://www.w3.org/2000/svg">
<path fill-rule="evenodd" clip-rule="evenodd" d="M111.614 30.616H111.316H111.021H110.728H110.439H110.151H109.866H109.583H109.304H109.026H108.75H108.476H108.204H107.934H107.666H107.4H107.135H106.87H106.609H106.402H94.4539C90.9556 30.616 89.5384 30.616 89.9423 26.4147C90.3169 22.5282 93.6628 19.9428 97.0311 19.8701L106.989 19.6588C105.087 15.1372 101.483 11.9642 95.4112 11.9642C89.3399 11.9642 82.8535 17.5911 82.8535 24.533C82.8535 31.4764 88.4762 37.1033 95.4112 37.1033C97.3791 37.1033 99.2421 36.65 100.901 35.8413C102.283 36.0974 104.362 36.7661 105.741 38.5233C107.945 41.3325 107.313 45.6667 107.299 45.7562C103.784 47.7344 99.7299 48.8635 95.4112 48.8635C81.987 48.8635 71.1064 37.9707 71.1064 24.533C71.1064 11.0968 81.987 0.203979 95.4112 0.203979C108.835 0.203979 119.716 11.0968 119.716 24.533C119.716 29.9459 118.015 30.616 113.392 30.616H111.614V30.616Z" fill="white"/>
<path fill-rule="evenodd" clip-rule="evenodd" d="M216.735 30.616H216.437H216.142H215.849H215.56H215.272H214.987H214.704H214.425H214.147H213.871H213.597H213.325H213.055H212.787H212.52H212.256H211.992H211.73H211.523H199.575C196.077 30.616 194.66 30.616 195.063 26.4147C195.438 22.5282 198.784 19.9428 202.152 19.8701L212.11 19.6588C210.208 15.1372 206.604 11.9642 200.532 11.9642C194.461 11.9642 187.975 17.5911 187.975 24.533C187.975 31.4764 193.597 37.1033 200.532 37.1033C202.5 37.1033 204.363 36.65 206.022 35.8413C207.404 36.0974 209.483 36.7661 210.862 38.5233C213.066 41.3325 212.435 45.6667 212.421 45.7562C208.906 47.7344 204.851 48.8635 200.532 48.8635C187.108 48.8635 176.228 37.9707 176.228 24.533C176.228 11.0968 187.108 0.203979 200.532 0.203979C213.955 0.203979 224.837 11.0968 224.837 24.533C224.837 29.9459 223.136 30.616 218.513 30.616H216.735V30.616Z" fill="white"/>
<path fill-rule="evenodd" clip-rule="evenodd" d="M147.97 0C161.45 0 172.377 10.939 172.377 24.4312C172.377 24.9922 172.356 25.5476 172.319 26.0974L172.321 26.0946C172.34 34.9686 172.359 43.8412 172.377 52.7139C172.194 57.3096 169.907 64.9609 163.06 66.7041C163.06 66.7041 158.604 67.717 153.136 65.8927C147.667 64.0683 138.553 65.0812 138.553 65.0812C138.553 65.0812 133.692 66.2984 132.273 67.3113C130.856 68.3256 129.64 67.9199 129.64 67.9199C129.64 67.9199 127.007 67.1084 132.07 60.0126C137.134 52.9167 145.033 53.1196 145.033 53.1196C148.747 53.2553 152.46 53.3896 156.174 53.5253C159.819 53.3224 160.427 49.6724 160.427 49.6724V45.4431C156.781 47.6144 152.522 48.8623 147.97 48.8623C134.491 48.8623 123.564 37.9234 123.564 24.4312C123.564 10.939 134.491 0 147.97 0V0ZM147.767 10.2395C151.18 10.2395 153.946 13.0081 153.946 16.4232C153.946 19.8382 151.18 22.6068 147.767 22.6068C144.356 22.6068 141.59 19.8382 141.59 16.4232C141.59 13.0081 144.356 10.2395 147.767 10.2395ZM147.745 31.832H147.387H146.934C146.934 31.832 146.326 22.5047 141.263 23.3161C141.263 23.3161 137.618 23.3161 136.402 28.9934C136.402 28.9934 135.592 34.6706 140.251 35.0749H147.387H147.745H155.285C159.945 34.6706 159.134 28.9934 159.134 28.9934C157.918 23.3161 154.273 23.3161 154.273 23.3161C149.21 22.5047 148.602 31.832 148.602 31.832H147.745V31.832Z" fill="white"/>
<path fill-rule="evenodd" clip-rule="evenodd" d="M39.3166 35.7843V49.0666C36.6415 49.0666 34.6261 49.0666 31.9525 49.0666C28.5814 48.6609 26.9601 45.4165 27.1698 42.417V42.3751V35.8542V19.4842V19.466C27.2215 15.4914 23.8113 12.268 19.6673 12.268C15.5233 12.268 12.1634 15.4914 12.1634 19.466V35.9395V42.3751V49.0666C9.48976 49.0666 7.47438 49.0666 4.80071 49.0666C1.42963 48.6609 -0.191625 45.4165 0.0180191 42.417V19.3401C0.0138262 19.1792 0.0110309 19.0183 0.0110309 18.8574C0.0110309 8.66695 8.7616 0.407104 19.5569 0.407104C24.9294 0.407104 29.7973 2.45528 33.3305 5.76677C36.8624 2.45528 41.7289 0.407104 47.1028 0.407104C57.8981 0.407104 66.6487 8.66695 66.6487 18.8574C66.6487 28.9262 66.6487 38.9964 66.6487 49.0666C63.975 49.0666 61.9582 49.0666 59.2845 49.0666C55.9135 48.6609 54.2936 45.4165 54.5018 42.417V42.3751V35.9367V19.4842L54.5032 19.466C54.5536 15.4914 51.1433 12.268 46.9994 12.268C42.8554 12.268 39.4955 15.4914 39.4955 19.466V35.857L39.3166 35.7843V35.7843Z" fill="white"/>
</svg>
