<svg width="593" height="427" viewBox="0 0 593 427" fill="none" xmlns="http://www.w3.org/2000/svg">
<g clip-path="url(#clip0_7434_4214)">
<path d="M567.424 425.819C530.036 425.819 24.5589 424.729 24.5589 424.668C24.3494 424.178 -39.6088 345.758 40.9281 263.768C80.8345 223.143 4.28144 170.511 40.9281 125.321C103.703 47.9117 165.814 91.5075 217.556 69.7361C226.7 65.8922 235.873 59.7086 245.057 50.2161C250.227 44.878 255.891 40.2113 261.956 36.1805C262.887 35.5597 263.826 34.9539 264.774 34.3658C268.405 32.112 272.172 30.0752 276.05 28.2428C278.656 27.0136 281.308 25.8779 284.012 24.833C288.301 23.1748 292.709 21.7437 297.21 20.5347C303.604 18.8159 310.184 17.5363 316.895 16.6706C319.821 16.2895 322.773 15.9917 325.748 15.767C383.565 11.4183 448.629 35.8751 482.207 71.6215C488.966 78.8197 519.707 116.063 495.476 167.256C480.176 199.577 544.271 230.445 567.046 267.354C624.951 361.191 567.949 424.595 567.422 425.819H567.424Z" fill="#EBF3FA"/>
<g opacity="0.8">
<path d="M436.607 207.646C435.063 211.891 433.17 215.914 430.968 219.685C425.682 228.736 418.633 236.345 410.433 242.229C391.382 255.903 366.129 260.242 342.428 251.623C314.233 241.371 296.123 215.657 294.196 187.528C293.938 183.82 293.964 180.072 294.289 176.311C294.824 169.996 296.196 163.646 298.462 157.41C300.296 152.364 302.625 147.64 305.373 143.276C305.403 143.225 305.436 143.177 305.466 143.127C313.095 131.072 323.932 121.767 336.395 115.934C339.93 114.278 343.599 112.903 347.363 111.825C349.157 111.31 350.978 110.863 352.81 110.49C365.67 107.842 379.398 108.612 392.646 113.43C394.402 114.069 396.12 114.768 397.795 115.525C400.162 116.588 402.445 117.766 404.643 119.049C413.9 124.447 421.645 131.693 427.585 140.128H427.587C431.288 145.381 434.283 151.092 436.501 157.107C437.666 160.267 438.618 163.507 439.342 166.811C439.793 168.868 440.157 170.943 440.432 173.043C441.093 178.083 441.229 183.224 440.815 188.393C440.295 194.822 438.915 201.293 436.607 207.651V207.646Z" fill="#D7E5FF"/>
<path d="M355.307 143.066C350.965 146.431 352.116 155.433 344.597 150.36C337.079 145.285 332.361 142.526 330.231 146.956C328.099 151.385 334.763 153.808 333.009 158.634C331.256 163.46 327.688 163.969 323.929 160.007C320.164 156.044 320.056 152.231 313.965 152.357C307.872 152.483 305.274 149.977 305.571 145.401C305.622 144.596 305.541 143.899 305.372 143.278C305.402 143.228 305.435 143.18 305.465 143.129C313.095 131.075 323.931 121.769 336.395 115.937C339.93 114.281 343.598 112.905 347.363 111.828C349.156 111.313 350.978 110.866 352.81 110.492C354.934 111.356 357.212 113.107 358.418 116.621C361.07 124.351 365.372 122.532 361.718 129.008C358.063 135.482 359.569 137.072 363.555 138.261C367.544 139.449 372.138 141.12 371.513 144.275C370.884 147.43 359.652 139.699 355.307 143.066Z" fill="#AEC3FF"/>
<path d="M436.607 207.646C435.063 211.891 433.17 215.914 430.968 219.685C425.682 228.736 418.633 236.345 410.433 242.229C408.389 242.166 406.53 241.471 404.963 240.071C397.601 233.491 407.357 226.505 412.494 223.102C417.631 219.703 408.094 218.574 403.285 211.949C398.476 205.324 409.737 196.344 402.501 195.859C395.265 195.375 386.464 194.905 384.991 187.152C383.518 179.398 391.129 180.993 389.797 174.461C388.465 167.929 394.76 166.705 401.494 168.57C408.228 170.433 409.058 165.469 417.404 167.722C425.753 169.976 421.822 180.254 431.031 182.823C440.24 185.392 439.084 187.313 439.084 187.313C439.735 187.53 440.313 187.894 440.813 188.386C440.293 194.814 438.913 201.286 436.604 207.643L436.607 207.646Z" fill="#AEC3FF"/>
<path d="M440.431 173.04C431.664 173.956 432.257 163.008 424.814 163.659C417.308 164.313 420.52 158.974 416.806 153.462C413.087 147.95 400.56 150.938 403.106 145.358C405.652 139.783 412.648 144.144 415.926 140.136C419.203 136.125 426.136 139.947 426.136 139.947C426.61 139.939 427.095 140 427.584 140.128C427.584 140.128 427.584 140.126 427.587 140.128C431.288 145.381 434.283 151.09 436.501 157.107C437.666 160.267 438.617 163.507 439.342 166.811C439.793 168.868 440.156 170.943 440.431 173.043V173.04Z" fill="#AEC3FF"/>
<path d="M384.875 130.404C384.875 130.404 390.827 126.189 385.231 122.269C379.633 118.352 378.956 120.57 374.322 118.301C369.684 116.032 366.432 119.079 368.569 124.472C370.704 129.866 370.79 138.758 375.578 135.777C380.367 132.796 380.884 129.407 384.878 130.404H384.875Z" fill="#AEC3FF"/>
</g>
<path d="M41.2537 424.875H66.8875C68.26 423.709 65.9363 421.061 63.5092 420.885C62.4546 420.804 61.1199 421.026 59.596 421.347C59.2428 416.66 57.2294 395.59 49.6377 396.438C41.1024 397.387 49.6377 405.716 52.0497 410.648C53.8385 414.3 55.7232 419.539 56.5835 422.013C55.8897 422.162 55.1732 422.311 54.439 422.445C53.3087 418.969 49.0978 407.281 43.744 407.962C37.4591 408.76 39.9847 413.447 44.4403 416.228C47.7076 418.275 51.7217 421.183 53.6291 422.586C52.0144 422.851 50.3265 423.028 48.6159 422.987C44.2258 422.884 42.0813 424.176 41.2512 424.873L41.2537 424.875Z" fill="#A8D29F"/>
<path d="M449.198 424.875H425.389C424.112 423.792 426.272 421.334 428.527 421.167C429.506 421.094 430.745 421.299 432.16 421.596C432.488 417.243 434.358 397.672 441.41 398.46C449.339 399.34 441.41 407.079 439.169 411.66C437.509 415.052 435.758 419.918 434.956 422.215C435.599 422.354 436.265 422.49 436.946 422.616C437.999 419.388 441.907 408.53 446.88 409.164C452.718 409.906 450.371 414.257 446.234 416.841C443.198 418.742 439.469 421.442 437.698 422.747C439.199 422.992 440.766 423.159 442.353 423.121C446.433 423.025 448.421 424.226 449.193 424.873L449.198 424.875Z" fill="#A8D29F"/>
<path d="M466.202 268.75C466.202 268.75 466.769 263.112 463.823 263.306C460.876 263.498 460.094 264.851 460.424 265.936C460.752 267.019 463.621 270.605 463.621 270.605L466.204 268.753L466.202 268.75Z" fill="#FFB27D"/>
<path d="M512.128 280.05C512.128 280.05 508.865 283.886 501.849 288.31C501.185 288.732 500.489 289.153 499.757 289.58C497.032 291.167 493.836 292.795 490.145 294.312C489.738 294.479 489.262 294.663 488.724 294.857C484.518 296.377 476.783 298.53 471.989 298.724C471.573 298.742 471.177 298.742 470.808 298.727C463.512 298.431 462.621 270.1 462.621 270.1C462.621 270.1 463.433 267.266 467.183 267.98C467.183 267.98 472.877 283.982 474.916 285.287C476.727 286.445 487.145 270.65 496.111 269.545C502.147 268.8 512.128 280.057 512.128 280.057V280.05Z" fill="#739AF0"/>
<path d="M492.524 418.214C492.524 418.214 493.064 424.451 491.744 425.1L474.878 425.064C474.878 425.064 474.878 423.116 477.588 422.684C480.297 422.253 485.056 420.665 485.861 417.131C486.665 413.598 492.524 418.214 492.524 418.214Z" fill="#1C3154"/>
<path d="M480.141 342.726C480.224 346.805 480.421 351.012 480.805 354.793C482.626 372.733 483.267 394.409 483.529 398.588C483.984 405.842 485.417 417.432 485.417 417.432C485.417 417.432 488.258 420.13 493.796 418.843C493.796 418.843 498.385 402.152 499.409 384.575C499.424 384.288 499.44 383.997 499.455 383.707C499.573 381.383 499.697 378.728 499.826 375.863C500.668 356.673 501.587 328.166 501.587 328.166L480.421 323.194C480.421 323.194 479.934 332.562 480.141 342.731V342.726Z" fill="#2A4E96"/>
<path d="M480.141 342.726C485.505 351.984 495.728 369.041 499.826 375.858C500.668 356.668 501.587 328.161 501.587 328.161L480.421 323.188C480.421 323.188 479.934 332.557 480.141 342.726Z" fill="#233862"/>
<path d="M488.724 294.855C484.519 296.374 476.783 298.527 471.989 298.722C472.723 298.585 478.062 297.525 480.035 295.143C482.154 292.578 485.724 285.618 488.565 288.459C489.903 289.797 489.509 292.44 488.724 294.858V294.855Z" fill="#6385DB"/>
<path d="M524.289 339.71C524.289 339.71 525.603 344.864 525.386 346.01C525.172 347.156 523.888 351.032 523.088 351.997C522.288 352.958 522.255 347.814 521.723 347.004C521.19 346.197 521.478 348.925 521.052 349.15C520.625 349.372 519.914 347.083 519.598 346.27C519.283 345.457 520.734 342.63 520.87 340.604C521.004 338.577 524.286 339.71 524.286 339.71H524.289Z" fill="#FFB27D"/>
<path d="M534.539 411.125C534.539 411.125 537.542 413.866 536.956 415.811C536.371 417.76 533.661 419.057 533.296 421.437C532.93 423.817 531.466 425.115 530.147 425.115H523.865C523.865 425.115 522.893 423.439 525.237 422.934C527.581 422.429 528.464 419.633 528.318 417.036C528.171 414.438 528.537 410.978 528.537 410.978L533.515 409.825L534.539 411.122V411.125Z" fill="#1C3154"/>
<path d="M483.756 328.595C483.756 328.595 503.569 371.002 514.113 389.608C524.656 408.214 527.951 413.409 527.951 413.409C527.951 413.409 533.991 411.029 534.541 409.406C534.541 409.406 530.51 373.483 523.448 364.727C519.459 359.78 514.771 344.93 514.552 339.738C514.332 334.546 509.702 322.151 509.702 322.151L483.756 328.595Z" fill="#2A4E96"/>
<path d="M480.063 326.389C480.063 326.389 486.514 333.335 497.477 335.432C502.288 336.353 512.054 337.244 514.477 333.817C515.044 333.012 515.049 331.82 514.923 329.96C514.598 325.127 513.382 315.781 518.869 297C519.381 295.254 519.724 293.578 519.924 291.98C521.122 282.372 520.991 275.12 512.66 271.246C500.174 265.441 495.049 270.216 495.049 270.216C495.049 270.216 488.409 273.321 485.374 282.367C479.306 300.461 480.06 326.386 480.06 326.386L480.063 326.389Z" fill="#739AF0"/>
<path d="M505.167 269.654C503.065 271.148 499.366 272.029 495.841 270.264C495.569 270.128 495.604 268.263 495.672 266.431C495.741 264.633 495.91 262.867 495.91 262.867L500.353 259.949L504.591 257.168C504.084 266.736 506.118 268.975 505.169 269.651L505.167 269.654Z" fill="#FFB27D"/>
<path d="M503.842 261.118C503.842 261.118 500.958 265.446 495.67 266.431C495.738 264.634 495.93 262.652 495.93 262.652L500.35 259.952L503.844 261.12L503.842 261.118Z" fill="#ED985F"/>
<path d="M491.928 261.744C491.928 261.744 502.676 265.757 505.068 259.131C507.46 252.506 510.457 248.564 503.695 245.722C496.934 242.88 494.681 244.929 493.336 246.946C491.991 248.962 489.193 260.53 491.928 261.744Z" fill="#FFB27D"/>
<path d="M511.764 246.464C511.888 246.368 512.138 246.32 512.662 246.396C512.662 246.396 512.299 246.055 511.749 245.931C511.782 245.189 511.651 243.839 510.475 243.286C510.475 243.286 511.07 243.773 511.007 244.556C509.864 242.799 507.001 241.118 498.357 240.109C486.963 238.779 489.241 246.694 490.525 247.837C491.81 248.98 495.927 247.355 498.591 248.104C501.256 248.854 500.998 252.867 501.808 253.584C502.621 254.303 502.447 253.281 503.799 252.965C505.151 252.65 504.864 254.732 504.241 255.999C503.617 257.266 504.975 259.371 504.975 259.371L507.066 257.854C509.158 256.337 512.337 248.788 511.885 246.956C511.845 246.794 511.807 246.63 511.767 246.466L511.764 246.464Z" fill="#2C3A64"/>
<path d="M514.925 329.963C514.6 325.13 513.384 315.783 518.871 297.003C519.383 295.256 519.727 293.58 519.926 291.983C515.849 290.638 508.421 293.628 508.421 293.628C508.421 293.628 506.675 318.454 514.928 329.96L514.925 329.963Z" fill="#6385DB"/>
<path d="M514.908 272.503C514.908 272.503 519.924 274.328 523.125 287.616C525.24 296.394 529.133 309.299 529.572 313.355C530.011 317.411 525.121 341.151 525.121 341.151C525.121 341.151 524.432 341.653 522.742 341.315C521.125 340.992 520.373 339.897 520.373 339.897C520.373 339.897 519.205 324.074 519.505 316.601C519.631 313.497 505.141 293.868 497.32 291.339C494.25 290.347 514.908 272.5 514.908 272.5V272.503Z" fill="#739AF0"/>
<path d="M444.738 255.303C444.738 255.303 459.238 254.891 475.971 257.973L477.719 253.566L479.637 248.738C479.637 248.738 462.838 241.504 452.741 231.429L444.738 255.303Z" fill="#AEC3FF"/>
<path d="M452.968 231.194L444.642 255.777C443.424 255.416 442.76 254.109 443.184 252.912L450.511 232.257C450.866 231.257 451.994 230.768 452.968 231.194Z" fill="#F99746"/>
<path d="M460.916 273.601C462.533 273.924 464.123 272.864 464.448 271.246L467.314 256.898C467.637 255.277 466.577 253.69 464.96 253.364C463.34 253.041 461.753 254.101 461.428 255.719L458.562 270.067C458.239 271.688 459.299 273.275 460.916 273.601Z" fill="#F99746"/>
<path d="M444.738 255.303C444.738 255.303 459.238 254.891 475.971 257.973L477.719 253.566C461.996 250.353 444.738 255.303 444.738 255.303Z" fill="#739AF0"/>
<path d="M471.343 257.087L475.874 257.885C475.806 257.887 480.082 258.717 481.485 254.924C481.614 254.664 481.697 254.409 481.755 254.106C482.845 249.379 480.252 248.508 480.252 248.508L474.421 246.234L472.569 252.794V252.817L471.348 257.087H471.343Z" fill="#F99746"/>
<path d="M471.343 257.087L475.874 257.885C475.806 257.887 480.082 258.717 481.485 254.924C478.922 253.059 472.566 252.791 472.566 252.791V252.814L471.345 257.084L471.343 257.087Z" fill="#ED7D2B"/>
<path d="M461.301 259.707C461.301 259.707 463.519 260.59 463.11 261.567C462.704 262.544 459.886 263.886 459.442 263.117C458.998 262.347 459.906 258.884 461.301 259.709V259.707Z" fill="#FFB27D"/>
<path d="M466.244 267.862C466.244 267.862 466.663 265.593 466.688 264.55C466.714 263.508 466.837 262.657 466.593 262.627C466.348 262.597 466.169 262.788 466.07 263.124C465.969 263.46 465.586 265.537 465.586 265.537L465.78 267.544L466.247 267.859L466.244 267.862Z" fill="#FFB27D"/>
<path d="M247.015 266.383L234.458 415.749C234.458 415.749 233.144 424.802 239.875 424.82C250.944 424.845 294.973 424.82 294.973 424.82C294.973 424.82 286.642 422.934 286.742 418.694C286.861 413.697 301.419 264.969 301.419 264.969L247.015 266.383Z" fill="#7599EA"/>
<path d="M299.115 422.169C296.938 422.177 254.314 422.247 243.533 422.109C238.835 422.051 238.01 417.929 237.972 415.264C237.952 413.987 238.116 413.04 238.116 413.04L238.442 409.158L239.274 399.265L240.008 390.522L240.955 379.288L241.749 369.805L250.673 263.669L305.077 262.256C305.077 262.256 298.946 324.498 294.609 369.803C294.124 374.851 293.665 379.692 293.239 384.209C293.1 385.653 292.969 387.061 292.838 388.434C292.437 392.72 292.068 396.657 291.748 400.133C291.579 401.965 291.422 403.666 291.284 405.226C290.731 411.337 290.406 415.239 290.401 415.981C290.401 416.412 290.436 416.816 290.506 417.189C291.4 421.95 298.298 422.164 299.115 422.164V422.169Z" fill="#90AFF4"/>
<path d="M114.896 185.102L145.482 308.012L149.67 324.847L163.918 382.094H428.594L376.082 185.102H114.896Z" fill="#AEC3FF"/>
<path d="M114.895 185.102L110.654 186.515L158.281 386.37L163.918 382.094L114.895 185.102Z" fill="#90AFF4"/>
<path d="M158.28 386.37H421.327L428.59 382.094H163.917L158.28 386.37Z" fill="#7599EA"/>
<path d="M250.653 424.875H307.607V422.167H250.653V424.875Z" fill="#AEC3FF"/>
<path d="M293.131 386.367L292.838 388.44L239.274 399.262L240.009 390.522L240.359 386.367H293.131Z" fill="#5888DD"/>
<path opacity="0.4" d="M299.115 422.169C296.938 422.177 254.314 422.248 243.533 422.109C238.836 422.051 238.011 417.929 237.973 415.264L291.281 405.231C290.729 411.342 290.403 415.244 290.398 415.986C290.398 416.417 290.434 416.821 290.504 417.195C291.397 421.955 298.295 422.169 299.113 422.169H299.115Z" fill="#5888DD"/>
<path d="M114.896 185.102H376.082L418.461 343.42H154.295L114.896 185.102Z" fill="#AEC3FF"/>
<path d="M406.141 336.56H161.588L152.851 301.735L149.47 288.26L148.09 282.765L139.108 246.976L138.644 245.111L133.896 226.194L131.771 217.729L129.96 210.508L125.711 193.583H366.739L371.404 210.508L373.392 217.729L375.726 226.194L391.094 281.958V281.96L392.395 286.685L393.001 288.878L403.61 327.378L406.141 336.56Z" fill="#739AF0"/>
<path d="M371.404 210.51H129.96L125.714 193.583H366.739L371.404 210.51Z" fill="#607CF4"/>
<path d="M135.685 201.232C135.395 200.064 136.104 199.117 137.272 199.117C138.44 199.117 139.623 200.064 139.914 201.232C140.204 202.401 139.495 203.348 138.327 203.348C137.159 203.348 135.975 202.401 135.685 201.232Z" fill="#E9F3FE"/>
<path d="M142.713 201.232C142.423 200.064 143.132 199.117 144.3 199.117C145.469 199.117 146.652 200.064 146.942 201.232C147.232 202.401 146.523 203.348 145.355 203.348C144.187 203.348 143.004 202.401 142.713 201.232Z" fill="#E9F3FE"/>
<path d="M150.28 201.232C149.99 200.064 150.699 199.117 151.867 199.117C153.035 199.117 154.218 200.064 154.508 201.232C154.799 202.401 154.09 203.348 152.921 203.348C151.753 203.348 150.57 202.401 150.28 201.232Z" fill="#E9F3FE"/>
<path d="M318.794 95.1721C328.679 83.562 343.921 60.2409 354.182 48.3003C356.294 45.842 354.538 42.0485 351.298 42.0485H332.625L350.239 2.20582C350.99 0.504694 348.674 -0.850654 347.559 0.638462L304.971 57.659C303.729 59.3222 305.087 61.6644 307.148 61.4095L328.288 58.8048L315.711 93.3675C315.02 95.2705 317.482 96.7117 318.794 95.1695V95.1721Z" fill="#F77D48"/>
<path d="M230.877 165.885C233.1 154.474 234.505 133.283 236.854 121.512C237.339 119.089 234.753 117.226 232.601 118.438L220.197 125.424L216.998 92.3705C216.862 90.9597 214.816 90.9268 214.634 92.3327L207.668 146.14C207.466 147.71 209.242 148.758 210.517 147.816L223.583 138.177L228.152 165.839C228.405 167.361 230.58 167.397 230.875 165.882L230.877 165.885Z" fill="#AEC3FF"/>
<path d="M416.823 339.93L204.328 357.84C188.194 359.2 176.517 342.744 183.122 327.956L273.148 126.403C279.978 111.113 300.972 109.344 310.262 123.276L432.731 306.919C441.718 320.395 432.958 338.572 416.823 339.932V339.93Z" fill="#E6EFFF"/>
<path d="M417.502 347.971L205.007 365.881C194.556 366.761 184.692 362.181 178.621 353.624C172.551 345.068 171.481 334.243 175.76 324.665L265.786 123.112C270.209 113.208 279.302 106.752 290.108 105.841C300.914 104.93 310.958 109.773 316.975 118.799L439.445 302.442C445.265 311.17 446.022 322.022 441.468 331.472C436.914 340.922 427.955 347.09 417.505 347.971H417.502ZM291.463 121.921C286.598 122.329 282.506 125.237 280.515 129.694L190.489 331.247C188.564 335.558 189.046 340.432 191.779 344.281C194.511 348.132 198.952 350.194 203.654 349.798L416.15 331.888C420.853 331.492 424.887 328.716 426.936 324.463C428.984 320.21 428.646 315.324 426.025 311.397L303.555 127.753C300.846 123.692 296.327 121.512 291.463 121.921Z" fill="#F77D48"/>
<path d="M286.483 309.095C286.253 306.356 286.525 303.782 287.31 301.374C288.092 298.969 289.303 296.839 290.946 294.986C292.588 293.136 294.622 291.624 297.051 290.458C299.479 289.295 302.267 288.575 305.413 288.31C308.556 288.045 311.448 288.285 314.077 289.022C316.708 289.762 318.989 290.91 320.917 292.46C322.847 294.012 324.396 295.91 325.569 298.149C326.742 300.392 327.444 302.881 327.676 305.622C327.905 308.36 327.628 310.915 326.843 313.28C326.058 315.647 324.845 317.754 323.202 319.607C321.56 321.46 319.504 322.971 317.034 324.14C314.564 325.309 311.756 326.028 308.609 326.293C305.463 326.558 302.594 326.318 300.008 325.576C297.42 324.834 295.162 323.686 293.232 322.133C291.304 320.584 289.752 318.709 288.584 316.505C287.414 314.304 286.715 311.833 286.483 309.095ZM319.335 270.638L288.726 273.217L275.578 168.962L314.859 165.65L319.335 270.638Z" fill="#F77D48"/>
<path d="M154.529 277.031C154.529 277.031 155.195 275.532 155.627 274.823C156.058 274.113 157.903 272.034 158.215 272.503C158.528 272.975 159.785 276.143 159.119 277.031C158.453 277.919 159.162 279.462 155.846 280.398L154.532 277.031H154.529Z" fill="#FFB27D"/>
<path d="M117.676 267.566C117.676 267.566 134.653 281.743 141.271 280.431C146.448 279.404 154.63 276.809 154.63 276.809C154.63 276.809 156.79 278.863 156.179 281.327C156.179 281.327 145.754 291.14 138.327 291.203C126.716 291.301 121.241 285.448 121.241 285.448L117.676 267.569V267.566Z" fill="#ED7D2B"/>
<path d="M87.9014 417.094C87.9014 417.094 88.3934 425.047 89.9324 425.16C90.1368 425.175 97.7335 425.175 97.7335 425.175L107.432 425.12C107.432 425.12 107.369 422.783 104.533 422.288C101.7 421.793 96.9539 419.802 95.2358 416.054C93.4293 412.112 87.9014 417.094 87.9014 417.094Z" fill="#113C68"/>
<path d="M87.344 417.646C87.344 417.646 90.2909 418.633 92.5944 418.633C95.1628 418.633 97.4941 417.934 97.4941 417.934C97.4941 417.934 98.0492 412.566 101.102 400.736C102.704 394.535 104.99 386.562 108.242 376.655C117.237 349.276 119.972 333.259 120.221 331.742C120.234 331.661 120.239 331.624 120.239 331.624L120.209 331.611L92.5541 319.466C92.5541 319.466 95.9727 357.201 91.6105 371.686C90.9999 373.71 90.4776 376.07 90.0285 378.624C87.2734 394.356 87.339 417.649 87.339 417.649L87.344 417.646Z" fill="#2A4E96"/>
<path d="M101.102 400.734C102.704 394.532 104.99 386.559 108.242 376.653C117.236 349.273 119.971 333.256 120.221 331.74C120.218 331.694 120.216 331.651 120.211 331.606L92.5562 319.461C92.5562 319.461 95.9748 357.196 91.6126 371.681C91.002 373.705 101.099 400.734 101.099 400.734H101.102Z" fill="#233862"/>
<path d="M109.501 417.094C109.501 417.094 109.993 425.047 111.532 425.16C111.736 425.175 119.333 425.175 119.333 425.175L129.032 425.12C129.032 425.12 128.968 422.783 126.133 422.288C123.299 421.793 118.554 419.802 116.835 416.054C115.029 412.112 109.501 417.094 109.501 417.094Z" fill="#15447C"/>
<path d="M125.179 320.352C125.179 320.352 125.538 344.803 121.309 374.828C117.08 404.853 118.514 417.596 118.514 417.596C118.514 417.596 115.607 418.537 114.436 418.633C111.449 418.876 108.386 417.932 108.386 417.932C108.386 417.932 102.334 387.897 104.069 372.869C105.805 357.842 95.7812 321.303 95.7812 321.303L125.182 320.349L125.179 320.352Z" fill="#2A4E96"/>
<path d="M105.57 263.129L110.967 266.67L115.884 265.28C116.782 263.998 117.022 261.524 117.034 259.384C117.047 257.259 116.84 255.457 116.84 255.457L109.556 252.241L106.839 251.042C106.847 251.085 107.051 253.273 107.079 253.594C107.586 259.27 105.567 263.129 105.567 263.129H105.57Z" fill="#FFB27D"/>
<path d="M125.302 327.149C118.584 333.638 93.1567 332.547 91.5899 325.397C90.0256 318.247 93.298 264.533 104.775 261.158C107.157 260.459 119.89 264.575 119.89 264.575C119.89 264.575 121.889 269.805 123.198 276.461C123.453 277.755 124.195 291.483 124.75 304.325C125.01 310.332 125.229 316.144 125.34 320.402C125.441 324.39 125.446 327.01 125.302 327.151V327.149Z" fill="#F99746"/>
<path d="M107.629 253.695C109.107 256.193 114.29 258.382 117.037 259.384C117.05 257.259 116.843 255.457 116.843 255.457L109.559 252.241C107.949 252.221 106.968 252.579 107.626 253.695H107.629Z" fill="#FCA56B"/>
<path d="M119.59 255.012C119.59 255.012 107.856 258.674 105.688 251.33C103.521 243.985 100.546 239.51 107.946 236.863C115.346 234.215 117.637 236.585 118.957 238.862C120.276 241.138 122.587 253.874 119.59 255.015V255.012Z" fill="#FFB27D"/>
<path d="M118.495 238.15C118.495 238.15 117.746 246.698 115.98 246.327C114.213 245.956 112.268 245.161 112.526 247.738C112.785 250.315 110.807 254.732 108.259 254.722C102.794 254.699 96.8577 240.671 98.3538 238.011C102.671 230.336 124.734 228.786 118.495 238.15Z" fill="#163560"/>
<path d="M116.77 261.342C116.618 261.279 108.035 257.428 107.031 257.758C106.027 258.089 104.775 261.158 104.775 261.158L119.891 264.576C119.891 264.576 118.7 262.155 116.77 261.342Z" fill="#ED7D2B"/>
<path d="M170.212 302.944L122.093 348.266C121.149 349.155 119.961 349.437 119.449 348.895L117.824 347.168C117.314 346.626 117.668 345.455 118.611 344.566L166.73 299.244C167.674 298.356 168.862 298.073 169.374 298.616L170.999 300.342C171.509 300.885 171.155 302.056 170.212 302.944Z" fill="#1F4D84"/>
<path d="M143.208 328.378L122.093 348.266C121.149 349.155 119.961 349.437 119.449 348.895L117.824 347.168C117.314 346.626 117.668 345.455 118.611 344.566L139.726 324.678L143.208 328.375V328.378Z" fill="#739AF0"/>
<path d="M159.152 285.832C160.998 291.922 164.42 297.626 169.387 302.301C184.558 316.578 208.428 315.849 222.701 300.675C236.785 285.698 236.262 262.251 221.664 247.915C221.47 247.723 221.273 247.531 221.071 247.345C205.903 233.067 182.035 233.791 167.763 248.968C158.163 259.174 155.347 273.321 159.149 285.832H159.152ZM169.932 251.009C178.238 242.178 190.074 238.657 201.187 240.583C207.664 241.704 213.891 244.672 219.035 249.513C233.008 262.662 233.676 284.653 220.531 298.633C215.692 303.78 209.657 307.119 203.264 308.636C192.286 311.235 180.257 308.446 171.429 300.135C157.456 286.983 156.785 264.992 169.932 251.012V251.009Z" fill="#1F4D84"/>
<g opacity="0.5">
<path d="M220.531 298.633C215.692 303.779 209.654 307.119 203.264 308.636C192.286 311.233 180.259 308.444 171.428 300.132C157.456 286.983 156.785 264.989 169.932 251.009C178.238 242.178 190.073 238.657 201.187 240.583C207.664 241.704 213.893 244.672 219.035 249.513C233.007 262.662 233.679 284.656 220.531 298.633Z" fill="#B3CFF9"/>
</g>
<path d="M125.34 320.402C98.8261 301.503 101.031 276.281 101.031 276.281C110.722 281.748 120.337 293.838 124.75 304.325C125.01 310.332 125.229 316.144 125.34 320.402Z" fill="#ED7D2B"/>
<path d="M151.509 311.793C153.379 311.361 154.635 309.948 154.895 309.701C154.895 309.701 155.692 309.756 154.764 311.457C154.686 311.599 154.514 311.965 154.383 312.225C154.33 312.331 154.403 312.454 154.522 312.462C155.601 312.545 156.686 312.116 158.763 312.55C159.05 312.611 159.134 313.297 159.121 313.59C159.103 314.085 159.139 314.643 158.563 315.402C158.228 315.844 157.294 316.318 155.213 317.156C154.421 317.474 152.152 317.235 150.028 316.505L148.33 315.718L148.857 312.563L149.284 312.651C149.96 312.792 150.8 311.967 151.507 311.793H151.509Z" fill="#FFB27D"/>
<path d="M109.261 264.575C109.261 264.575 85.4391 269.113 116.27 303.626C121.2 309.145 147.843 316.331 147.843 316.331C147.843 316.331 150.545 314.032 149.183 312.169C149.183 312.169 130.838 298.843 126.804 296.725C124.987 295.771 119.757 275.456 116.798 270.565C113.838 265.673 109.261 264.575 109.261 264.575Z" fill="#F99746"/>
<path d="M155.174 277.45C155.174 277.45 155.954 275.961 156.105 275.173C156.257 274.389 157.238 272.097 157.642 271.693C157.803 271.531 158.338 271.741 158.401 272.435C158.429 272.738 158.28 273.288 158.018 273.942C157.591 275.009 157.662 276.456 157.513 276.938C157.145 278.139 155.172 277.45 155.172 277.45H155.174Z" fill="#FFB27D"/>
<path d="M164.657 218.319C164.251 218.784 164.2 219.301 164.399 219.857C164.399 219.857 164.399 219.862 164.404 219.864C164.775 220.889 165.999 222.035 167.422 223.178C167.604 223.324 167.765 223.458 167.906 223.582C167.944 223.615 167.98 223.647 168.015 223.68C168.043 223.706 168.07 223.731 168.098 223.756C169.425 224.98 168.926 225.26 171.307 227.744C174.025 230.573 175.894 230.626 176.427 230.366C176.878 230.147 175.962 228.647 174.948 226.959C174.9 226.878 174.85 226.795 174.802 226.714C174.666 226.489 174.532 226.262 174.398 226.038C173.21 224.008 173.515 223.057 173.798 220.036C174.027 217.582 177.62 206.326 177.62 206.326L172.412 205.427C172.412 205.427 170.841 214.39 169.112 215.77C168.189 216.505 167.155 216.515 166.266 217.06C166.203 217.098 166.143 217.136 166.082 217.176C165.578 217.512 165.063 217.855 164.657 218.322V218.319Z" fill="#FFB27D"/>
<path d="M164.657 218.32C164.251 218.784 164.2 219.301 164.399 219.857C164.399 219.857 164.399 219.862 164.404 219.864C164.859 220.889 166.052 222.027 167.427 223.168C167.606 223.317 167.765 223.453 167.906 223.582C167.944 223.615 167.98 223.648 168.015 223.68C168.043 223.706 168.07 223.731 168.098 223.756C169.425 224.98 168.926 225.26 171.307 227.744C174.025 230.573 175.894 230.626 176.427 230.366C176.878 230.147 175.962 228.647 174.948 226.959C174.418 226.765 171.961 225.765 170.104 223.385C168.527 221.371 167.457 218.807 166.385 217.229C166.266 217.206 166.196 217.194 166.08 217.171C165.575 217.507 165.06 217.85 164.654 218.317L164.657 218.32Z" fill="#233862"/>
<path d="M206.654 215.079C206.975 216.686 209.268 216.419 211.826 215.796C214.387 215.17 213.779 215.914 217.422 215.513C221.066 215.112 222.171 213.751 222.282 213.211C222.383 212.729 220.581 212.56 218.651 212.338C218.409 212.31 218.164 212.28 217.919 212.249C215.74 211.974 214.142 210.566 212.162 209.41C210.287 208.315 207.489 203.852 207.489 203.852L202.491 204.246C202.491 204.246 205.113 208.231 206.127 209.963C206.722 210.982 206.692 212.33 206.616 213.37C206.578 213.935 206.541 214.513 206.654 215.081V215.079Z" fill="#FFB27D"/>
<path d="M211.826 215.796C214.387 215.17 213.779 215.914 217.422 215.513C221.066 215.112 222.171 213.751 222.282 213.211C222.383 212.729 220.581 212.56 218.651 212.338L218.633 212.376C218.633 212.376 216.449 213.925 213.416 213.996C210.943 214.057 208.327 213.345 206.619 213.373C206.581 213.938 206.543 214.516 206.657 215.084C206.977 216.692 209.271 216.424 211.829 215.801L211.826 215.796Z" fill="#233862"/>
<path d="M187.515 183.111L182.84 195.682L176.736 212.098C176.736 212.098 175.081 212.257 173.497 211.8C172.039 211.379 170.363 210.273 170.363 210.273C170.363 210.273 172.064 192.643 175.225 182.525C176.035 179.928 176.943 177.828 177.945 176.644C182.845 170.857 187.515 183.106 187.515 183.106V183.111Z" fill="#233862"/>
<path d="M182.772 163.139C180.112 162.281 173.174 163.121 165.648 164.482C163.569 164.858 161.472 163.906 160.377 162.099L141.44 160.613C141.44 160.613 135.185 174.474 138.604 183.31C139.106 184.61 140.209 185.42 141.914 185.448C141.914 185.448 153.358 185.468 157.019 185.468C166.438 185.471 176.954 178.999 178.314 178.727C180.539 178.283 181.429 182.737 183.655 187.414C185.88 192.091 204.576 208.133 204.576 208.133C204.576 208.133 207.449 208.163 208.638 207.717C209.914 207.237 210.381 206.616 210.381 206.616C210.381 206.616 189.675 165.368 182.772 163.136V163.139Z" fill="#2A4E96"/>
<path d="M158.387 106.464C156.981 105.626 155.609 105.498 154.769 105.52C154.183 105.538 153.6 105.498 153.023 105.414C145.794 104.352 141.44 114.854 141.182 118.026C140.713 123.852 137.63 124.74 133.293 128.387C124.593 135.701 127.142 144.202 131.895 147.364C134.749 149.26 139.777 147.364 139.777 147.364C139.848 147.415 153.532 139.719 160.276 136.007C170.386 134.573 162.446 108.882 158.387 106.462V106.464Z" fill="#233862"/>
<path d="M154.625 132.844C154.655 132.864 151.307 134.005 149.069 133.013C146.963 132.082 145.371 128.614 145.401 128.614C146.36 128.571 147.412 127.733 148.222 122.236L148.63 122.382L155.488 124.853C155.488 124.853 154.991 127.054 154.668 129.152C154.395 130.911 154.252 132.597 154.625 132.847V132.844Z" fill="#FFB27D"/>
<path d="M155.487 124.851C155.487 124.851 155.212 126.04 154.814 128.258C150.875 127.547 149.185 124.51 148.63 122.38L155.487 124.851Z" fill="#ED975D"/>
<path d="M156.51 127.037C156.51 127.037 147.127 125.772 148.002 119.939C148.877 114.107 148.257 110.013 154.287 110.573C160.314 111.134 161.142 113.534 161.323 115.553C161.505 117.572 158.975 127.216 156.512 127.037H156.51Z" fill="#FFB27D"/>
<path d="M160.98 112.355C160.98 112.355 154.971 117.532 150.886 117.948C146.799 118.365 145.252 117.052 145.252 117.052C145.252 117.052 147.661 115.053 149.112 111.825C149.539 110.874 150.442 110.22 151.481 110.131C154.398 109.882 159.931 109.768 160.98 112.355Z" fill="#233862"/>
<path d="M157.227 111.891C157.227 111.891 159.235 113.834 159.868 115.278C160.479 116.668 160.66 119.997 160.173 121.317C160.173 121.317 163.307 115.227 161.536 112.269C159.656 109.129 157.227 111.891 157.227 111.891Z" fill="#233862"/>
<path d="M162.522 146.675C162.232 165.678 162.438 161.708 160.359 163.51C159.857 163.944 158.452 164.202 156.598 164.325C150.772 164.709 140.534 163.747 140.145 162.67C138.803 158.942 139.752 157.786 138.634 152.082C138.518 151.476 138.374 150.817 138.202 150.103C137.269 146.186 136.361 144.851 139.678 138.558C142.688 132.857 145.812 128.231 146.094 128.397C154.027 133.112 154.668 129.152 154.668 129.152C154.668 129.152 162.665 137.408 162.522 146.678V146.675Z" fill="#F99746"/>
<path d="M182.84 195.682L176.736 212.098C176.736 212.098 175.081 212.257 173.497 211.8C172.039 211.379 170.363 210.273 170.363 210.273C170.363 210.273 172.064 192.644 175.225 182.525L182.84 195.68V195.682Z" fill="#2A4E96"/>
<path d="M154.668 129.149C154.668 129.149 162.83 130.537 163.789 134.053C164.745 137.569 167.894 158.911 167.894 158.911C167.894 158.911 165.59 161.16 163.675 159.242C161.758 157.324 157.648 139.273 157.648 139.273L154.668 129.152V129.149Z" fill="#F99746"/>
<path d="M156.601 164.325C150.775 164.709 140.537 163.747 140.148 162.67C138.806 158.942 139.754 157.786 138.637 152.082L141.45 144.169C141.45 144.169 140.983 152.983 143.579 155.3C146.173 157.619 154.214 159.777 155.478 161.716C156.086 162.644 156.487 163.578 156.603 164.325H156.601Z" fill="#ED7D2B"/>
<path d="M149.927 160.615C149.927 160.615 155.675 159.338 156.601 159.848C157.527 160.358 159.792 162.218 160.077 162.864C160.36 163.51 158.014 162.372 157.249 162.167C156.755 162.033 155.453 162.485 154.807 162.702C152.095 163.606 150.432 163.139 150.432 163.139L149.925 160.615H149.927Z" fill="#FFB27D"/>
<path d="M146.09 128.392C146.09 128.392 138.374 128.864 135.7 132.592C131.938 137.837 124.47 160.194 128.744 163.177C133.558 166.536 150.654 164.063 150.654 164.063C150.654 164.063 151.224 161.403 150.432 160.115C149.64 158.828 136.777 156.746 136.185 156.15C135.592 155.557 143.61 144.57 143.61 142.789C143.61 141.007 146.085 128.392 146.085 128.392H146.09Z" fill="#F99746"/>
<path d="M156.881 161.448C156.881 161.448 158.084 163.003 158.478 163.187C158.872 163.374 159.129 163.326 159.129 163.326L158.319 161.864L156.881 161.445V161.448Z" fill="#FFB27D"/>
<path d="M156.603 159.848L160.103 161.549C160.103 161.549 159.954 161.794 159.522 161.773C159.091 161.753 158.003 161.354 158.003 161.354L156.601 159.848H156.603Z" fill="#FFB27D"/>
<path d="M186.495 163.856L149.927 163.843V164.651L186.17 164.663L186.495 163.856Z" fill="#233862"/>
<path d="M158.478 164.653L186.17 164.663L194.506 143.944L166.856 143.934L158.478 164.653Z" fill="#233862"/>
<path d="M179.184 154.3C179.393 153.571 178.972 152.98 178.243 152.98C177.514 152.98 176.754 153.571 176.545 154.298C176.336 155.027 176.757 155.618 177.486 155.618C178.215 155.618 178.975 155.027 179.184 154.3Z" fill="white"/>
<path d="M366.595 242.799C362.864 241.56 360.283 243.125 360.283 243.125C349.542 243.566 349.144 254.581 350.403 258.679C352.174 264.437 345.907 268.975 352.858 271.304C360.921 274.007 367.688 270.799 367.226 272.193C392.726 274.202 375.08 245.618 366.595 242.799Z" fill="#163560"/>
<path d="M355.454 296.367C355.454 296.367 354.432 298.388 352.582 300.71C350.352 303.507 338.64 296.871 339.649 296.367C340.659 295.862 346.542 278.901 347.945 276.771C349.348 274.641 354.121 273.533 354.121 273.533L355.454 296.367Z" fill="#F99746"/>
<path d="M394.974 410.754C394.974 410.754 398.206 413.704 397.576 415.801C396.945 417.899 394.028 419.297 393.635 421.859C393.241 424.421 391.664 425.819 390.244 425.819H383.477C383.477 425.819 382.432 424.014 384.955 423.472C387.479 422.929 388.43 419.918 388.271 417.122C388.112 414.325 388.508 410.6 388.508 410.6L393.869 409.358L394.974 410.756V410.754Z" fill="#1F447F"/>
<path d="M367.618 412.005C367.618 412.005 368.781 424.506 367.363 425.205L349.202 425.168C349.202 425.168 349.202 423.07 352.119 422.606C355.035 422.139 360.16 420.43 361.027 416.627C361.895 412.823 367.618 412.005 367.618 412.005Z" fill="#1C3154"/>
<path d="M381.587 287.934C381.587 287.934 381.857 291.751 381.587 296.331C381.408 299.368 378.337 303.434 377.901 304.441C376.808 306.965 375.575 307.374 375.575 307.374L366.04 309.711L362.687 310.531L352.113 307.371C352.113 307.371 347.297 293.926 349.232 286.357C351.165 278.788 354.119 273.53 354.119 273.53C354.119 273.53 361.305 271.915 373.98 272.814L381.584 287.932L381.587 287.934Z" fill="#F99746"/>
<path d="M382.495 296.437C382.316 299.474 378.337 303.434 377.901 304.441C376.808 306.965 375.574 307.374 375.574 307.374L366.04 309.711L364.319 304.774C364.319 304.774 378.251 301.112 376.011 288.212L382.495 296.435V296.437Z" fill="#ED7D2B"/>
<path d="M352.787 309.416C352.787 309.416 347.552 325.718 347.214 331.27C346.878 336.82 357.223 410.123 357.639 412.679C358.03 415.09 361.025 416.627 361.025 416.627C361.025 416.627 362.403 417.439 364.365 416.884C367.09 416.114 367.953 415.193 367.953 415.193C367.953 415.193 372.028 362.915 369.507 344.241C366.984 325.566 366.957 309.416 366.957 309.416H352.79H352.787Z" fill="#233862"/>
<path d="M374.972 308.928C374.972 308.928 382.96 319.648 383.704 326.896C384.449 334.142 384.872 359.596 386.459 366.661C388.046 373.725 393.875 387.322 393.875 409.355C393.875 409.355 393.269 410.617 391.399 411.291C390.802 411.506 389.999 411.715 389.222 411.894C387.681 412.248 386.096 411.493 385.392 410.077C381.451 402.142 368.902 376.544 368.258 371.232C367.804 367.471 363.841 342.585 355.194 327.984C353.118 324.478 356.468 310.536 356.468 310.536L374.975 308.931L374.972 308.928Z" fill="#2A4E96"/>
<path d="M351.952 306.899C351.952 306.899 354.053 308.562 358.229 308.646C363.217 308.747 375.574 307.374 375.574 307.374C375.574 307.374 376.124 308.908 376.102 310.528C376.102 310.528 361.007 314.337 352.262 311.084C352.262 311.084 351.134 308.961 351.952 306.896V306.899Z" fill="#233862"/>
<path d="M357.034 312.946C355.78 312.946 354.758 311.79 354.758 310.369C354.758 308.948 355.78 307.792 357.034 307.792C358.288 307.792 359.309 308.948 359.309 310.369C359.309 311.79 358.288 312.946 357.034 312.946ZM357.034 308.547C356.193 308.547 355.512 309.365 355.512 310.369C355.512 311.374 356.196 312.192 357.034 312.192C357.871 312.192 358.555 311.374 358.555 310.369C358.555 309.365 357.874 308.547 357.034 308.547Z" fill="white"/>
<path d="M367.937 317.633L345.25 317.845L334.086 291.599L356.773 291.387L367.937 317.633Z" fill="#B5453C"/>
<path d="M364.971 305.773L363.308 303.729C363.308 303.729 362.183 302.725 361.365 302.555C360.548 302.384 358.825 301.389 358.658 301.67C358.492 301.95 359.983 303.949 359.983 303.949L360.058 303.959C358.345 305.248 354.021 304.11 353.488 304.635C352.843 305.271 354.379 306.649 355.204 307.424C356.029 308.196 358.388 309.486 360.227 308.916C361.572 308.497 363.686 308.07 363.686 308.07L364.971 305.773Z" fill="#FFB27D"/>
<path d="M335.792 296.218C335.792 296.218 337.218 294.597 338.126 295.375C339.034 296.152 337.889 299.978 337.024 299.59C336.158 299.201 335.295 296.695 335.792 296.218Z" fill="#FFB27D"/>
<path d="M373.983 272.819C373.983 272.819 380.477 273.535 385.137 282.006C388.813 288.687 395.095 301.001 392.724 304.479C391.684 306.006 381.706 311.44 362.463 308.335C362.463 308.335 362.766 305.905 364.317 304.777C364.317 304.777 380.512 299.575 380.485 298.54C380.432 296.584 378.297 294.893 369.25 285.84C366.79 283.379 373.98 272.816 373.98 272.816L373.983 272.819Z" fill="#F99746"/>
<path d="M368.984 273.162C369.206 272.861 368.921 271.907 368.563 270.13C368.24 268.52 367.692 266.029 367.703 263.228L367.223 263.308L359.175 264.664C359.175 264.664 359.359 266.817 359.364 268.846C359.364 268.863 359.364 268.879 359.364 268.896C359.374 270.658 358.89 273.321 359.483 273.666C362.533 275.453 368.124 274.315 368.984 273.162Z" fill="#FFB27D"/>
<path d="M359.175 264.661C359.175 264.661 359.334 267.698 359.341 269.724C363.845 269.616 366.249 265.242 367.226 263.306L359.177 264.661H359.175Z" fill="#E8945B"/>
<path d="M358.69 268.283C358.69 268.283 369.242 266.779 368.205 260.219C367.168 253.659 367.831 249.048 361.049 249.732C354.268 250.414 353.359 253.124 353.173 255.398C352.986 257.672 355.918 268.505 358.69 268.283Z" fill="#FFB27D"/>
<path d="M356.231 250.335C356.231 250.335 360.339 257.569 364.94 258.003C369.545 258.435 371.273 256.946 371.273 256.946C371.273 256.946 367.451 254.79 365.998 250.197C365.998 250.197 357.821 246.327 356.229 250.335H356.231Z" fill="#163560"/>
<path d="M357.045 250.845C357.045 250.845 355.037 251.986 354.404 253.685C353.786 255.345 353.374 257.483 353.94 259.931C353.94 259.931 350.935 255.048 352.905 251.701C354.992 248.152 357.045 250.845 357.045 250.845Z" fill="#163560"/>
<path d="M4.60472 424.875H589.524C589.927 424.875 590.255 425.203 590.255 425.607V426.028C590.255 426.432 589.927 426.76 589.524 426.76H4.60472C4.20104 426.76 3.87305 426.432 3.87305 426.028V425.607C3.87305 425.203 4.20104 424.875 4.60472 424.875Z" fill="#233862"/>
</g>
<defs>
<clipPath id="clip0_7434_4214">
<rect width="592.723" height="426.76" fill="white" transform="translate(0.277344)"/>
</clipPath>
</defs>
</svg>
